<svg id="Layer_1" data-name="Layer 1" xmlns="http://www.w3.org/2000/svg" xmlns:xlink="http://www.w3.org/1999/xlink" viewBox="0 0 839.22 1491.11"><defs><style>.cls-1{fill:url(#linear-gradient);}.cls-2{fill:url(#linear-gradient-2);}.cls-3{fill:url(#linear-gradient-3);}.cls-4{fill:url(#linear-gradient-4);}.cls-5{fill:url(#linear-gradient-5);}.cls-6{fill:#ad6ca1;}.cls-7{fill:#c1809a;}.cls-8{fill:url(#linear-gradient-6);}.cls-9{fill:url(#linear-gradient-7);}.cls-10{fill:url(#linear-gradient-8);}.cls-11{fill:url(#linear-gradient-9);}.cls-12{fill:url(#linear-gradient-10);}.cls-13{fill:url(#linear-gradient-11);}.cls-14{fill:url(#linear-gradient-12);}.cls-15{fill:url(#linear-gradient-13);}.cls-16{fill:url(#linear-gradient-14);}.cls-17{fill:url(#linear-gradient-15);}.cls-18{fill:url(#linear-gradient-16);}.cls-19{fill:url(#linear-gradient-17);}.cls-20{fill:url(#linear-gradient-18);}.cls-21{fill:url(#linear-gradient-19);}.cls-22{fill:#fffceb;}.cls-23{opacity:0.1;}.cls-24,.cls-25,.cls-26{fill:#fff;}.cls-25{opacity:0.3;}.cls-26{opacity:0.25;}.cls-27{opacity:0.4;}</style><linearGradient id="linear-gradient" x1="419.84" y1="883.61" x2="419.84" y2="44.86" gradientUnits="userSpaceOnUse"><stop offset="0" stop-color="#fffceb"/><stop offset="0.31" stop-color="#f7dc85"/><stop offset="0.66" stop-color="#ef7886"/><stop offset="1" stop-color="#e567ac"/></linearGradient><linearGradient id="linear-gradient-2" x1="-0.37" y1="-2.22" x2="0.73" y2="-2.22" gradientTransform="matrix(0, -765.52, -765.52, 0, -479.27, 836.7)" gradientUnits="userSpaceOnUse"><stop offset="0" stop-color="#fffceb"/><stop offset="0.31" stop-color="#f9e49d"/><stop offset="0.66" stop-color="#f3989e"/><stop offset="1" stop-color="#eb8bbb"/></linearGradient><linearGradient id="linear-gradient-3" x1="-0.37" y1="-2.22" x2="0.73" y2="-2.22" gradientTransform="matrix(0, -765.52, -765.52, 0, -479.27, 836.7)" gradientUnits="userSpaceOnUse"><stop offset="0" stop-color="#fffceb"/><stop offset="0.31" stop-color="#faeab0"/><stop offset="0.66" stop-color="#f6b0b0"/><stop offset="1" stop-color="#f0a6c6"/></linearGradient><linearGradient id="linear-gradient-4" x1="1020.8" y1="1383.92" x2="1020.8" y2="1159.21" gradientUnits="userSpaceOnUse"><stop offset="0" stop-color="#c1809a"/><stop offset="1" stop-color="#b2709e"/></linearGradient><linearGradient id="linear-gradient-5" x1="988.91" y1="1302.03" x2="988.91" y2="1018.89" gradientUnits="userSpaceOnUse"><stop offset="0" stop-color="#ad6ca1"/><stop offset="1" stop-color="#9b5d95"/></linearGradient><linearGradient id="linear-gradient-6" x1="1117.74" y1="1387.59" x2="1117.74" y2="1309.22" xlink:href="#linear-gradient-5"/><linearGradient id="linear-gradient-7" x1="1106.24" y1="1218.1" x2="1109.95" y2="1245.33" xlink:href="#linear-gradient-5"/><linearGradient id="linear-gradient-8" x1="1177.96" y1="1208.23" x2="1177.96" y2="1240.29" xlink:href="#linear-gradient-5"/><linearGradient id="linear-gradient-9" x1="1411" y1="1106.99" x2="1411" y2="1133.39" xlink:href="#linear-gradient-5"/><linearGradient id="linear-gradient-10" x1="1041.44" y1="1234.76" x2="1042.9" y2="1277.85" gradientUnits="userSpaceOnUse"><stop offset="0" stop-color="#895396"/><stop offset="1" stop-color="#784784"/></linearGradient><linearGradient id="linear-gradient-11" x1="840.81" y1="1131.93" x2="840.81" y2="1191.09" xlink:href="#linear-gradient-10"/><linearGradient id="linear-gradient-12" x1="1014.42" y1="1219.11" x2="1014.42" y2="1248.33" xlink:href="#linear-gradient-10"/><linearGradient id="linear-gradient-13" x1="1040.06" y1="1516.91" x2="1040.06" y2="1384.86" xlink:href="#linear-gradient-10"/><linearGradient id="linear-gradient-14" x1="1248.71" y1="1183.34" x2="1245.05" y2="1230.81" xlink:href="#linear-gradient-10"/><linearGradient id="linear-gradient-15" x1="1326.56" y1="1137.55" x2="1326.56" y2="1218.41" xlink:href="#linear-gradient-10"/><linearGradient id="linear-gradient-16" x1="1378.8" y1="1115.29" x2="1377.2" y2="1189.17" xlink:href="#linear-gradient-10"/><linearGradient id="linear-gradient-17" x1="779.3" y1="1156.96" x2="782.59" y2="1245.7" gradientUnits="userSpaceOnUse"><stop offset="0" stop-color="#64467c"/><stop offset="1" stop-color="#593b6d"/></linearGradient><linearGradient id="linear-gradient-18" x1="970.86" y1="1194.76" x2="970.86" y2="1292.99" xlink:href="#linear-gradient-17"/><linearGradient id="linear-gradient-19" x1="1040.06" y1="1790.82" x2="1040.06" y2="1516.47" xlink:href="#linear-gradient-17"/></defs><rect class="cls-1" x="0.47" width="838.75" height="1491.11" rx="30.7"/><path class="cls-2" d="M1219.92,1020.32a142.89,142.89,0,1,1,142.89-142.89,142.88,142.88,0,0,1-142.89,142.89m0-306.24a163.35,163.35,0,1,0,163.35,163.35,163.34,163.34,0,0,0-163.35-163.35" transform="translate(-620.22 -233.97)"/><path class="cls-3" d="M1219.92,734.54a142.89,142.89,0,1,0,142.89,142.89,142.88,142.88,0,0,0-142.89-142.89" transform="translate(-620.22 -233.97)"/><path class="cls-4" d="M850.29,1048.94s3.29-38.62,34.51-55.06,34.36-31.45,42.66-26.41,46.09,16.55,51,26.41,19.72,56.83,29.58,76.9,42.6,64.44,58.27,62.79,33.76,3.33,38.69,14.81,31.22,57,37.8,67.13,35.78,62.68,34.32,67.61,26.88,74.05,26.88,74.05l-100.64,44.28-215.14-46.87s-41.49-95.16-48.9-104.95S850.29,1048.94,850.29,1048.94Z" transform="translate(-620.22 -233.97)"/><path class="cls-5" d="M620.63,941.3S678,888.71,689.53,892,740,877.2,765.28,873.92s48.73-3.29,78.91,26.29-.15,31.22,17.17,87.1,86.93,161,99.18,216.32,48.14,168.14,62.56,175.58,334.51,32.6,334.51,32.6L1044.75,1549.7,620.22,1442.53Z" transform="translate(-620.22 -233.97)"/><path class="cls-6" d="M719.65,916.71c8,16.8,22.64,29.95,24.1,35.79s8-27.76,8-27.76,29.58-1.46,36,0,13.7-22.64,23.2-23.37,24.1,24.83,20.45,40.9,16.73,58.44,6.17,62.09-55.11,13.88-45.62,17.53,40.91-10.22,53.33-5.84,57.5,60.54,57.59,60.64c-17.65-33.59-34.22-65.85-41.52-89.38-17.32-55.88,13-57.52-17.17-87.1s-53.58-29.58-78.91-26.29-64.2,21.36-75.75,18.07c-4.76-1.35-17.3,6.78-30.4,16.82h0S711.62,899.91,719.65,916.71Z" transform="translate(-620.22 -233.97)"/><path class="cls-7" d="M913.15,997.06c4.81-7.12,13-20.27,18-14.25s24.11-.56,22.46,17.25-5.48,27.13,6,14,18.63,5.48,23.56,19.72,20.27,57.52-3.29,64.1-9.83,4.24,18.37,9.79,40.8,28.22,46.91,23.62,16.34,13.7,14.15,19.73c-1,2.86,5.83-7.17,14.51-17.71a58.12,58.12,0,0,0-7.48.28c-15.67,1.65-48.41-42.73-58.27-62.79s-24.65-67-29.58-76.9-42.73-21.36-51-26.41-11.43,10-42.66,26.41c-.64.34-1.25.7-1.87,1.06.17,3.28,1.76,5.61,6.55,4.31C901.53,996,908.34,1004.18,913.15,997.06Z" transform="translate(-620.22 -233.97)"/><path class="cls-8" d="M1459.44,1170.27c-4.78-.32-9.58-.44-14.38-.46-15.89-.06-31.82,0-47.67,1.23-32.91,2.56-64.62,10.56-91.94,29.75-12,8.43-23.16,18-34.08,27.77-5.16,4.61-10.27,9.25-15.48,13.8-2.59,2.27-5.2,4.52-7.85,6.72-1.32,1.1-2.65,2.2-4,3.27-.78.64-1.57,1.26-2.37,1.89l-.84.64c-5,3.72-10.18,7.3-15.57,10.51q-4.5,2.67-9.17,5a70,70,0,0,1-9.58,4.16c-14.7,5.49-30.08,8.84-45.43,11.91-14.86,3-29.79,5.64-44.41,9.66-16.35,4.5-31.78,11.37-47.34,18.05-10.53,4.52-27.91,10.88-39.78,12.66-17.3,2.58-35.29.92-52.61-.59-34.89-3-69.57-4.35-104.55-1.72-15.9,1.19-31.76,3.08-47.53,5.5a39,39,0,0,0-19.31-1.67c-17.37,2.76-28.14,18.29-29.38,35.09-2.56,34.82,32.16,53.5,54.29,73.67,24.18,22.05,46.92,45.25,73.87,64.06,25.46,17.77,53.32,31.69,82.23,42.87,60.24,23.29,125.34,32.31,189.66,33.06,35.09.41,70.18-1.64,105.1-5,35.08-3.34,70.43-7.1,105.14-13.22,25.09-4.43,50.54-11.47,73-24Zm-646,192-.11,0c.18,0,.31,0,.35,0Z" transform="translate(-620.22 -233.97)"/><path class="cls-9" d="M1156.47,1317c-5.71.48-15.26-13.1-15.26-13.1,4.61,6.19,9.52,4.32,9.52,4.32-2.13-.06-5-2.1-6.93-3.67,4.83,3.3,10.77,1.59,10.77,1.59-5.44-.24-10.16-7-10.16-7,4.56,3.76,12,3.28,12,3.28-4.43-.81-12.35-4.85-17.61-7.73,6.52,1.73,16.17,1.08,16.17,1.08-16.53-2.92-22.59-11.52-22.59-11.52,2.94,3,12.72,4.53,14.21,4.75-2.37-.37-6.72-2.4-9.92-4a39.33,39.33,0,0,0,9.26,1.48c-4.81-.93-9.69-6.28-12.3-9.58a12.78,12.78,0,0,0,11.55,4.3c-5.14-.55-10.28-8.16-13-12.91,2.44,3.46,4.79,3.41,4.79,3.41-2.16-.4-4.4-6.73-4.4-6.73,4.72,7.85,11.77,7.29,11.77,7.29-5.93-.48-11.69-9.21-11.69-9.21,3.68,5.13,10.17,2.81,10.17,2.81-7.29-.48-11.85-11.93-11.85-11.93,2.23,2.9,7,3,8.39,2.9a10,10,0,0,1-5.59-2c3.38,1.62,8,.74,8,.74-3.77-.16-9.5-9.34-9.5-9.34,3.36,2.83,7.58,1,7.58,1-4.22,0-8-5.81-8-5.81,2.83,3.73,8,2.61,8,2.61-5.66.11-10.94-9-10.94-9,2.18,3.68,5.49,2.19,5.49,2.19-3.84-.06-5.65-4.27-5.65-4.27,2.88,3.73,8.43,1.65,8.43,1.65-8.76-1.76-10.73-8.27-10.73-8.27,3,4.21,8,2.45,8,2.45a8.59,8.59,0,0,1-8-3.52c3.47,4.8,10.94,2,10.94,2-7.1.43-11.26-7.2-11.26-7.2,1.28,1.76,3.68,1.06,3.68,1.06-2,.38-5.17-4.32-5.17-4.32,2.88,3.52,8.21,1.07,8.21,1.07-4.8,1.6-14.09-12.57-14.09-12.57s-9.29,14.17-14.09,12.57c0,0,5.33,2.45,8.22-1.07,0,0-3.21,4.7-5.18,4.32,0,0,2.4.7,3.68-1.06,0,0-4.16,7.63-11.26,7.2,0,0,7.47,2.77,10.94-2a8.57,8.57,0,0,1-8,3.52s5,1.76,8-2.45c0,0-2,6.51-10.73,8.27,0,0,5.55,2.08,8.44-1.65,0,0-1.82,4.21-5.66,4.27,0,0,3.31,1.49,5.5-2.19,0,0-5.29,9.07-10.94,9,0,0,5.12,1.12,8-2.61,0,0-3.74,5.76-8,5.81,0,0,4.21,1.82,7.57-1,0,0-5.73,9.18-9.49,9.34,0,0,4.62.88,8-.74a10,10,0,0,1-5.6,2c1.42.06,6.16,0,8.39-2.9,0,0-4.56,11.45-11.85,11.93,0,0,6.49,2.32,10.17-2.81,0,0-5.76,8.73-11.69,9.21,0,0,7,.56,11.77-7.29,0,0-2.24,6.33-4.4,6.73,0,0,2.35,0,4.79-3.41-2.73,4.75-7.87,12.36-13,12.91a12.77,12.77,0,0,0,11.55-4.3c-2.61,3.3-7.49,8.65-12.3,9.58a39.33,39.33,0,0,0,9.26-1.48c-3.2,1.62-7.55,3.65-9.92,4,1.5-.22,11.27-1.73,14.21-4.75,0,0-6.06,8.6-22.59,11.52,0,0,9.65.65,16.17-1.08-5.26,2.88-13.18,6.92-17.61,7.73,0,0,7.44.48,12-3.28,0,0-4.72,6.72-10.16,7,0,0,5.94,1.71,10.77-1.59-1.91,1.57-4.8,3.61-6.93,3.67,0,0,4.91,1.87,9.53-4.32,0,0-9.56,13.58-15.27,13.1,0,0,7.92.82,14-2.81a59.77,59.77,0,0,1-5.27,5h57.94a59.77,59.77,0,0,1-5.27-5C1148.55,1317.81,1156.47,1317,1156.47,1317Z" transform="translate(-620.22 -233.97)"/><path class="cls-10" d="M1154.5,1302.76c-4.4,2.72-13.08,7.68-17.83,7.59,0,0,1.4.21,3.5.41h75.57c2.11-.2,3.51-.41,3.51-.41-4.75.09-13.43-4.87-17.83-7.59,6.16,2.24,18.5.44,18.5.44a34.14,34.14,0,0,1-10-4.6,7.7,7.7,0,0,0,2.36-.42,21.58,21.58,0,0,1-6.16-2.15c-2.24-1.61-4.38-3.31-6.28-4.89a18.56,18.56,0,0,0,7,.53,9,9,0,0,1-4.49-2.16,16.88,16.88,0,0,0,6.25-1.49,24.85,24.85,0,0,1-8-5.78c3.66,3.13,13.6-.6,13.6-.6-9.41-.85-19.33-9.69-23.21-13.51a9,9,0,0,0,7.78,1.34c-6.41.36-9.94-8.56-9.94-8.56,5.49,8.07,20.53,4,20.53,4-12.16.48-21-17.72-21-17.72,6,7.11,16.6,3.14,16.6,3.14a13,13,0,0,1-12.55-8.92c3.4,1.57,4.58.48,4.58.48-3.92.12-6.8-4.34-6.8-4.34,6.15,5.18,14,.36,14,.36-6.14,1.33-13.29-10.84-13.29-10.84,2.92,2.17,8.32,0,8.32,0-2.47.61-7.22-2-10.4-4,6.52,3,15.37.86,15.37.86a26.71,26.71,0,0,1-16.47-9.16,9.93,9.93,0,0,0,6.4.72,11.74,11.74,0,0,1-10.46-6.87c1,1.45,6.28,1.57,6.28,1.57-1.57,0-4.57-2.64-4.57-2.64,4.12,1.89,10.89.27,10.89.27-13.53,0-15.89-12.75-14-10.58s4.61.55,4.61.55c-5-2.16-7.3-8.94-8.35-14.4v-7.56a49.05,49.05,0,0,1-.44,4.89,49.05,49.05,0,0,1-.44-4.89v7.56c-1,5.46-3.35,12.24-8.36,14.4,0,0,2.77,1.62,4.62-.55s-.5,10.58-14,10.58c0,0,6.77,1.62,10.89-.27,0,0-3,2.64-4.57,2.64,0,0,5.23-.12,6.27-1.57a11.72,11.72,0,0,1-10.45,6.87,9.93,9.93,0,0,0,6.4-.72,26.71,26.71,0,0,1-16.47,9.16s8.85,2.17,15.37-.86c-3.18,2-7.93,4.6-10.4,4,0,0,5.4,2.17,8.32,0,0,0-7.15,12.17-13.29,10.84,0,0,7.84,4.82,14-.36,0,0-2.88,4.46-6.8,4.34,0,0,1.18,1.09,4.58-.48a13,13,0,0,1-12.56,8.92s10.59,4,16.61-3.14c0,0-8.89,18.2-21.05,17.72,0,0,15,4.09,20.53-4,0,0-3.53,8.92-9.94,8.56a9,9,0,0,0,7.78-1.34c-3.88,3.82-13.8,12.66-23.21,13.51,0,0,9.94,3.73,13.6.6a25,25,0,0,1-8,5.78,17,17,0,0,0,6.26,1.49,9,9,0,0,1-4.49,2.16,18.56,18.56,0,0,0,7-.53c-1.9,1.58-4,3.28-6.28,4.89a21.68,21.68,0,0,1-6.16,2.15,7.7,7.7,0,0,0,2.36.42,34.14,34.14,0,0,1-10,4.6S1148.34,1305,1154.5,1302.76Zm42.55,5.36h0c-.09-.14-.13-.22-.13-.22A1.64,1.64,0,0,0,1197.05,1308.12Zm-38-.22s0,.08-.13.22h0A1.64,1.64,0,0,0,1159,1307.9Z" transform="translate(-620.22 -233.97)"/><path class="cls-11" d="M1390.75,1186.27c-3.8,2.35-11.29,6.63-15.39,6.55,0,0,1.21.18,3,.35h65.24c1.81-.17,3-.35,3-.35-4.1.08-11.59-4.2-15.39-6.55,5.32,1.93,16,.38,16,.38a29.68,29.68,0,0,1-8.65-4,6.82,6.82,0,0,0,2-.37,18.45,18.45,0,0,1-5.32-1.85c-1.94-1.39-3.78-2.85-5.42-4.22a16.07,16.07,0,0,0,6,.46,7.75,7.75,0,0,1-3.88-1.87,14.61,14.61,0,0,0,5.4-1.28,21.41,21.41,0,0,1-6.88-5c3.16,2.7,11.73-.52,11.73-.52-8.11-.74-16.68-8.37-20-11.66a7.76,7.76,0,0,0,6.72,1.15c-5.53.31-8.58-7.38-8.58-7.38,4.74,7,17.72,3.43,17.72,3.43-10.5.41-18.17-15.29-18.17-15.29,5.19,6.13,14.33,2.7,14.33,2.7a11.18,11.18,0,0,1-10.83-7.69c2.93,1.35,3.95.41,3.95.41-3.39.11-5.87-3.74-5.87-3.74,5.3,4.47,12.07.31,12.07.31-5.3,1.14-11.47-9.36-11.47-9.36,2.52,1.87,7.19,0,7.19,0-2.14.52-6.24-1.72-9-3.45,5.62,2.62,13.26.74,13.26.74a23,23,0,0,1-14.22-7.9,8.62,8.62,0,0,0,5.53.62,10.12,10.12,0,0,1-9-5.93c.9,1.25,5.41,1.36,5.41,1.36-1.35,0-3.94-2.29-3.94-2.29,3.56,1.64,9.4.24,9.4.24-11.68,0-13.71-11-12.11-9.13s4,.47,4,.47c-4.32-1.86-6.3-7.72-7.21-12.43v-6.53a41,41,0,0,1-.38,4.22,41,41,0,0,1-.38-4.22v6.53c-.91,4.71-2.89,10.57-7.21,12.43,0,0,2.38,1.4,4-.47s-.43,9.13-12.11,9.13c0,0,5.84,1.4,9.4-.24,0,0-2.59,2.29-3.94,2.29,0,0,4.51-.11,5.41-1.36a10.12,10.12,0,0,1-9,5.93,8.62,8.62,0,0,0,5.53-.62,23,23,0,0,1-14.22,7.9s7.64,1.88,13.26-.74c-2.74,1.73-6.84,4-9,3.45,0,0,4.67,1.87,7.19,0,0,0-6.17,10.5-11.47,9.36,0,0,6.77,4.16,12.07-.31,0,0-2.48,3.85-5.87,3.74,0,0,1,.94,3.95-.41a11.18,11.18,0,0,1-10.83,7.69s9.14,3.43,14.33-2.7c0,0-7.67,15.7-18.17,15.29,0,0,13,3.53,17.72-3.43,0,0-3.05,7.69-8.58,7.38a7.76,7.76,0,0,0,6.72-1.15c-3.35,3.29-11.92,10.92-20,11.66,0,0,8.57,3.22,11.73.52a21.41,21.41,0,0,1-6.88,5,14.61,14.61,0,0,0,5.4,1.28,7.75,7.75,0,0,1-3.88,1.87,16.07,16.07,0,0,0,6-.46c-1.64,1.37-3.48,2.83-5.42,4.22a18.45,18.45,0,0,1-5.32,1.85,6.82,6.82,0,0,0,2,.37,29.68,29.68,0,0,1-8.65,4S1385.43,1188.2,1390.75,1186.27Zm36.73,4.63h0l-.11-.19C1427.39,1190.77,1427.44,1190.83,1427.48,1190.9Zm-32.84-.19-.11.19h0C1394.56,1190.83,1394.61,1190.77,1394.64,1190.71Z" transform="translate(-620.22 -233.97)"/><path class="cls-12" d="M1018.92,1343.63c-4.92,3-14.62,8.58-19.93,8.48,0,0,1.56.23,3.92.46h84.48c2.35-.23,3.92-.46,3.92-.46-5.31.1-15-5.44-19.93-8.48,6.89,2.49,20.68.49,20.68.49a38.15,38.15,0,0,1-11.2-5.15,8.48,8.48,0,0,0,2.64-.47,23.91,23.91,0,0,1-6.89-2.4c-2.51-1.8-4.9-3.69-7-5.46a21,21,0,0,0,7.78.59,10.05,10.05,0,0,1-5-2.42,18.87,18.87,0,0,0,7-1.66,27.73,27.73,0,0,1-8.91-6.47c4.09,3.5,15.2-.67,15.2-.67-10.52-1-21.61-10.83-26-15.1a10,10,0,0,0,8.7,1.49c-7.16.41-11.11-9.56-11.11-9.56,6.14,9,23,4.44,23,4.44-13.59.54-23.53-19.8-23.53-19.8,6.72,8,18.56,3.5,18.56,3.5-11.4-.27-14-10-14-10,3.8,1.76,5.11.54,5.11.54-4.38.14-7.6-4.85-7.6-4.85,6.87,5.8,15.64.41,15.64.41-6.87,1.48-14.85-12.13-14.85-12.13,3.26,2.43,9.3,0,9.3,0-2.76.68-8.07-2.22-11.63-4.46,7.29,3.39,17.18,1,17.18,1a29.84,29.84,0,0,1-18.41-10.24c4.23,1.75,7.16.81,7.16.81a13.09,13.09,0,0,1-11.69-7.68c1.16,1.62,7,1.75,7,1.75-1.75,0-5.1-2.95-5.1-2.95,4.6,2.12,12.16.3,12.16.3-15.12,0-17.75-14.25-15.68-11.82s5.16.6,5.16.6c-5.6-2.4-8.17-10-9.34-16.09v-8.46a52.86,52.86,0,0,1-.49,5.47,52.86,52.86,0,0,1-.49-5.47v8.46c-1.18,6.1-3.74,13.69-9.34,16.09,0,0,3.08,1.82,5.16-.6s-.56,11.82-15.69,11.82c0,0,7.57,1.82,12.17-.3,0,0-3.35,2.95-5.1,2.95,0,0,5.84-.13,7-1.75a13.11,13.11,0,0,1-11.69,7.68s2.92.94,7.16-.81a29.88,29.88,0,0,1-18.42,10.24s9.9,2.43,17.18-1c-3.55,2.24-8.86,5.14-11.62,4.46,0,0,6,2.43,9.3,0,0,0-8,13.61-14.86,12.13,0,0,8.77,5.39,15.64-.41,0,0-3.21,5-7.6,4.85,0,0,1.32,1.22,5.12-.54,0,0-2.63,9.7-14,10,0,0,11.84,4.45,18.56-3.5,0,0-9.94,20.34-23.53,19.8,0,0,16.81,4.58,22.94-4.44,0,0-3.94,10-11.1,9.56a10,10,0,0,0,8.7-1.49c-4.34,4.27-15.44,14.15-25.95,15.1,0,0,11.11,4.17,15.2.67a27.7,27.7,0,0,1-8.92,6.47,19,19,0,0,0,7,1.66,10.05,10.05,0,0,1-5,2.42,21,21,0,0,0,7.78-.59c-2.12,1.77-4.51,3.66-7,5.46a24,24,0,0,1-6.89,2.4,8.4,8.4,0,0,0,2.64.47,38.15,38.15,0,0,1-11.2,5.15S1012,1346.12,1018.92,1343.63Zm47.57,6h0l-.14-.24Zm-42.53-.24s0,.08-.14.24h0Z" transform="translate(-620.22 -233.97)"/><path class="cls-13" d="M913.15,1314.36c-10.95.92-29.28-25.14-29.28-25.14,8.86,11.88,18.28,8.3,18.28,8.3-4.09-.13-9.63-4-13.3-7,9.27,6.32,20.67,3,20.67,3-10.44-.46-19.51-13.36-19.51-13.36,8.76,7.22,23,6.3,23,6.3-8.5-1.55-23.69-9.3-33.79-14.83,12.51,3.31,31,2.08,31,2.08-31.72-5.6-43.34-22.11-43.34-22.11,5.64,5.81,24.38,8.69,27.25,9.11-4.55-.71-12.89-4.61-19-7.72,7.93,2.56,17.75,2.85,17.75,2.85-9.22-1.78-18.58-12-23.6-18.38a24.52,24.52,0,0,0,22.17,8.25c-9.87-1-19.72-15.65-25-24.77,4.68,6.64,9.19,6.54,9.19,6.54-4.14-.76-8.44-12.9-8.44-12.9,9.06,15.05,22.57,14,22.57,14-11.36-.92-22.42-17.66-22.42-17.66,7.06,9.83,19.5,5.37,19.5,5.37-14-.92-22.73-22.88-22.73-22.88,4.28,5.57,13.37,5.68,16.1,5.57-3.94.09-7.85-1.92-10.73-3.92,6.49,3.12,15.37,1.42,15.37,1.42-7.22-.31-18.23-17.92-18.23-17.92,6.45,5.43,14.54,2,14.54,2-8.09-.1-15.25-11.16-15.25-11.16,5.42,7.17,15.25,5,15.25,5-10.85.2-21-17.21-21-17.21,4.2,7.07,10.55,4.2,10.55,4.2-7.37-.1-10.86-8.19-10.86-8.19,5.53,7.17,16.18,3.18,16.18,3.18-16.79-3.38-20.58-15.87-20.58-15.87,5.74,8.08,15.36,4.71,15.36,4.71-10,1.33-15.36-6.76-15.36-6.76,6.66,9.21,21,3.89,21,3.89-13.62.82-21.6-13.82-21.6-13.82,2.45,3.38,7.06,2,7.06,2-3.79.72-9.93-8.29-9.93-8.29,5.53,6.76,15.77,2,15.77,2-9.22,3.07-27-24.11-27-24.11s-17.83,27.18-27,24.11c0,0,10.24,4.71,15.77-2,0,0-6.15,9-9.94,8.29,0,0,4.61,1.34,7.07-2,0,0-8,14.64-21.6,13.82,0,0,14.33,5.32,21-3.89,0,0-5.32,8.09-15.35,6.76,0,0,9.62,3.37,15.35-4.71,0,0-3.78,12.49-20.57,15.87,0,0,10.64,4,16.17-3.18,0,0-3.48,8.09-10.85,8.19,0,0,6.35,2.87,10.55-4.2,0,0-10.14,17.41-21,17.21,0,0,9.82,2.15,15.25-5,0,0-7.17,11.06-15.25,11.16,0,0,8.08,3.48,14.53-2,0,0-11,17.61-18.22,17.92,0,0,8.87,1.7,15.37-1.42-2.89,2-6.8,4-10.74,3.92,2.73.11,11.83,0,16.1-5.57,0,0-8.75,22-22.73,22.88,0,0,12.44,4.46,19.51-5.37,0,0-11.06,16.74-22.42,17.66,0,0,13.51,1.07,22.57-14,0,0-4.3,12.14-8.45,12.9,0,0,4.51.1,9.2-6.54-5.25,9.12-15.09,23.72-25,24.77a24.5,24.5,0,0,0,22.16-8.25c-5,6.34-14.38,16.6-23.6,18.38,0,0,9.83-.29,17.76-2.85-6.14,3.11-14.48,7-19,7.72,2.86-.42,21.61-3.3,27.25-9.11,0,0-11.63,16.51-43.34,22.11,0,0,18.51,1.23,31-2.08-10.1,5.53-25.29,13.28-33.79,14.83,0,0,14.28.92,23-6.3,0,0-9.06,12.9-19.5,13.36,0,0,11.4,3.28,20.66-3-3.66,3-9.2,6.91-13.29,7,0,0,9.42,3.58,18.28-8.3,0,0-18.33,26.06-29.29,25.14,0,0,15.19,1.57,26.88-5.4a111.27,111.27,0,0,1-10.11,9.61H896.39a111.27,111.27,0,0,1-10.11-9.61C898,1315.93,913.15,1314.36,913.15,1314.36Z" transform="translate(-620.22 -233.97)"/><path class="cls-14" d="M978.45,1358.25c-6.73,4.16-20.05,11.76-27.33,11.62,0,0,2.15.32,5.38.63h115.84c3.23-.31,5.37-.63,5.37-.63-7.28.14-20.59-7.46-27.33-11.62,9.45,3.42,28.36.67,28.36.67-4.74-1.06-10.09-3.74-15.36-7.06a12.06,12.06,0,0,0,3.62-.64,33,33,0,0,1-9.45-3.3c-3.43-2.47-6.71-5.06-9.62-7.49a28.46,28.46,0,0,0,10.66.81,13.66,13.66,0,0,1-6.87-3.31,25.89,25.89,0,0,0,9.58-2.28,38,38,0,0,1-12.22-8.87c5.61,4.81,20.84-.92,20.84-.92-14.42-1.3-29.63-14.85-35.58-20.7,5.45,4.21,11.93,2,11.93,2-9.82.56-15.23-13.11-15.23-13.11,8.42,12.37,31.47,6.09,31.47,6.09-18.64.74-32.27-27.15-32.27-27.15,9.22,10.9,25.45,4.8,25.45,4.8-15.63-.37-19.24-13.67-19.24-13.67,5.21,2.41,7,.74,7,.74-6,.19-10.42-6.65-10.42-6.65,9.41,8,21.44.56,21.44.56-9.42,2-20.37-16.63-20.37-16.63,4.48,3.33,12.75,0,12.75,0-3.78.93-11.06-3-15.94-6.11,10,4.64,23.56,1.31,23.56,1.31a41,41,0,0,1-25.25-14c5.81,2.4,9.82,1.11,9.82,1.11-11.83-.18-16-10.53-16-10.53,1.61,2.22,9.62,2.4,9.62,2.4-2.4,0-7-4-7-4,6.31,2.91,16.68.42,16.68.42-20.74,0-24.35-19.54-21.51-16.21s7.08.83,7.08.83c-7.68-3.3-11.2-13.7-12.81-22.08v-11.58a73.09,73.09,0,0,1-.67,7.49,73.09,73.09,0,0,1-.67-7.49v11.58c-1.61,8.38-5.14,18.78-12.81,22.08,0,0,4.23,2.49,7.07-.83s-.76,16.21-21.5,16.21c0,0,10.37,2.49,16.68-.42,0,0-4.59,4-7,4,0,0,8-.18,9.62-2.4,0,0-4.21,10.35-16,10.53,0,0,4,1.29,9.82-1.11a41,41,0,0,1-25.25,14s13.57,3.33,23.55-1.31c-4.87,3.07-12.15,7-15.94,6.11,0,0,8.28,3.33,12.76,0,0,0-11,18.66-20.37,16.63,0,0,12,7.39,21.44-.56,0,0-4.41,6.84-10.42,6.65,0,0,1.8,1.67,7-.74,0,0-3.6,13.3-19.24,13.67,0,0,16.24,6.1,25.46-4.8,0,0-13.63,27.89-32.27,27.15,0,0,23,6.28,31.47-6.09,0,0-5.42,13.67-15.24,13.11,0,0,6.49,2.17,11.94-2-6,5.85-21.17,19.4-35.58,20.7,0,0,15.23,5.73,20.84.92a38,38,0,0,1-12.23,8.87,25.9,25.9,0,0,0,9.59,2.28,13.69,13.69,0,0,1-6.88,3.31,28.51,28.51,0,0,0,10.67-.81c-2.91,2.43-6.19,5-9.63,7.49a32.86,32.86,0,0,1-9.44,3.3,12,12,0,0,0,3.61.64c-5.26,3.32-10.61,6-15.35,7.06C950.1,1358.92,969,1361.67,978.45,1358.25Zm65.23,8.21h0l-.19-.33C1043.53,1366.24,1043.61,1366.35,1043.68,1366.46Zm-58.31-.33s-.07.11-.19.33h0Z" transform="translate(-620.22 -233.97)"/><path class="cls-15" d="M1459.44,1235.93a167.14,167.14,0,0,0-23.23-.5l-1.39-.38a18.43,18.43,0,0,0-13,1.63c-36,4.52-70.73,19-102.69,35.49-21,10.81-41.47,22.68-62.46,33.53-21.68,11.21-40.48,19.77-64,26.3a279.08,279.08,0,0,1-35.26,7.36,341.85,341.85,0,0,1-34.14,2.56c-12.06.29-24.13,0-36.16-.83q-8.58-.57-17.14-1.47c-6.47-.67-11.49-1.28-16.53-2-49.28-7.12-97.24-20.6-145.14-33.83-50-13.81-100.36-26.87-152.06-32.65a393.57,393.57,0,0,0-75.81-1.6c-19.94,1.64-41.07,4-59.71,12v409.9a33.65,33.65,0,0,0,33.65,33.64h771.46a33.65,33.65,0,0,0,33.65-33.64Z" transform="translate(-620.22 -233.97)"/><path class="cls-16" d="M1308.17,1364.06c-11,.92-29.28-25.14-29.28-25.14,8.85,11.88,18.27,8.3,18.27,8.3-4.09-.13-9.62-4-13.29-7,9.26,6.32,20.67,3,20.67,3-10.45-.46-19.51-13.36-19.51-13.36,8.76,7.22,23,6.3,23,6.3-8.51-1.55-23.7-9.29-33.79-14.83,12.51,3.32,31,2.08,31,2.08-31.71-5.6-43.34-22.11-43.34-22.11,5.64,5.81,24.39,8.7,27.26,9.11-4.55-.71-12.89-4.61-19-7.71,7.93,2.55,17.76,2.85,17.76,2.85-9.22-1.78-18.58-12-23.6-18.39a24.49,24.49,0,0,0,22.17,8.25c-9.88-1.05-19.72-15.65-25-24.77,4.68,6.64,9.19,6.55,9.19,6.55-4.15-.77-8.45-12.91-8.45-12.91,9.06,15.06,22.58,14,22.58,14-11.37-.92-22.42-17.66-22.42-17.66,7.06,9.83,19.5,5.37,19.5,5.37-14-.92-22.73-22.88-22.73-22.88,4.28,5.58,13.37,5.68,16.1,5.58-3.94.08-7.85-1.93-10.74-3.92,6.5,3.11,15.37,1.41,15.37,1.41-7.21-.3-18.22-17.91-18.22-17.91,6.45,5.42,14.54,1.94,14.54,1.94-8.09-.1-15.26-11.16-15.26-11.16,5.43,7.17,15.26,5,15.26,5-10.86.2-21-17.2-21-17.2,4.2,7.06,10.54,4.19,10.54,4.19-7.37-.1-10.85-8.19-10.85-8.19,5.53,7.17,16.18,3.18,16.18,3.18-16.79-3.38-20.58-15.87-20.58-15.87,5.73,8.09,15.36,4.71,15.36,4.71-10,1.33-15.36-6.76-15.36-6.76,6.65,9.21,21,3.89,21,3.89-13.62.82-21.61-13.82-21.61-13.82,2.46,3.38,7.07,2,7.07,2-3.79.71-9.93-8.3-9.93-8.3,5.53,6.76,15.76,2,15.76,2-9.21,3.07-27-24.1-27-24.1s-17.83,27.17-27,24.1c0,0,10.23,4.71,15.76-2,0,0-6.14,9-9.93,8.3,0,0,4.61,1.33,7.07-2,0,0-8,14.64-21.61,13.82,0,0,14.34,5.32,21-3.89,0,0-5.32,8.09-15.36,6.76,0,0,9.63,3.38,15.36-4.71,0,0-3.79,12.49-20.58,15.87,0,0,10.65,4,16.18-3.18,0,0-3.48,8.09-10.85,8.19,0,0,6.34,2.87,10.54-4.19,0,0-10.13,17.4-21,17.2,0,0,9.83,2.15,15.26-5,0,0-7.17,11.06-15.26,11.16,0,0,8.09,3.48,14.54-1.94,0,0-11,17.61-18.22,17.91,0,0,8.87,1.7,15.37-1.41-2.89,2-6.8,4-10.74,3.92,2.73.1,11.82,0,16.1-5.58,0,0-8.75,22-22.73,22.88,0,0,12.44,4.46,19.5-5.37,0,0-11,16.74-22.42,17.66,0,0,13.52,1.08,22.58-14,0,0-4.3,12.14-8.45,12.91,0,0,4.51.09,9.19-6.55-5.24,9.12-15.08,23.72-25,24.77a24.49,24.49,0,0,0,22.17-8.25c-5,6.34-14.38,16.61-23.6,18.39,0,0,9.83-.3,17.76-2.85-6.14,3.1-14.48,7-19,7.71,2.87-.41,21.62-3.3,27.26-9.11,0,0-11.63,16.51-43.34,22.11,0,0,18.51,1.24,31-2.08-10.09,5.54-25.28,13.28-33.79,14.83,0,0,14.28.92,23-6.3,0,0-9.06,12.9-19.51,13.36,0,0,11.41,3.28,20.67-3-3.67,3-9.2,6.91-13.29,7,0,0,9.42,3.58,18.27-8.3,0,0-18.33,26.06-29.28,25.14,0,0,15.18,1.57,26.88-5.4a112.9,112.9,0,0,1-10.12,9.62h111.17a112.9,112.9,0,0,1-10.12-9.62C1293,1365.63,1308.17,1364.06,1308.17,1364.06Z" transform="translate(-620.22 -233.97)"/><path class="cls-17" d="M1279.34,1364.62c-8.84,5.47-26.32,15.44-35.88,15.27,0,0,2.82.42,7.06.82H1402.6c4.23-.4,7.05-.82,7.05-.82-9.56.17-27-9.8-35.88-15.27,12.4,4.49,37.23.89,37.23.89-6.23-1.4-13.25-4.92-20.16-9.27a15.66,15.66,0,0,0,4.75-.84c-3.84-.48-8.56-2.44-12.4-4.33-4.52-3.25-8.82-6.65-12.64-9.84,6.28,2,14,1.07,14,1.07a18.07,18.07,0,0,1-9-4.35,34,34,0,0,0,12.59-3,50,50,0,0,1-16-11.64c7.37,6.31,27.36-1.21,27.36-1.21-18.92-1.7-38.9-19.5-46.71-27.18,7.16,5.53,15.67,2.69,15.67,2.69-12.9.73-20-17.22-20-17.22,11,16.25,41.31,8,41.31,8-24.47,1-42.36-35.65-42.36-35.65,12.1,14.31,33.41,6.3,33.41,6.3-20.52-.48-25.26-17.94-25.26-17.94,6.84,3.15,9.21,1,9.21,1-7.89.24-13.68-8.73-13.68-8.73,12.37,10.43,28.15.73,28.15.73-12.36,2.66-26.74-21.83-26.74-21.83,5.88,4.37,16.75,0,16.75,0-5,1.22-14.53-4-20.93-8,13.11,6.09,30.92,1.73,30.92,1.73a53.74,53.74,0,0,1-33.15-18.43c7.63,3.15,12.89,1.45,12.89,1.45-15.52-.24-21-13.82-21-13.82,2.1,2.91,12.62,3.15,12.62,3.15-3.15,0-9.18-5.32-9.18-5.32,8.28,3.82,21.9.54,21.9.54-27.23,0-32-25.64-28.24-21.27s9.3,1.09,9.3,1.09c-10.08-4.34-14.71-18-16.82-29v-15.22a95.34,95.34,0,0,1-.88,9.84,97.42,97.42,0,0,1-.89-9.84v15.22c-2.11,11-6.73,24.64-16.81,29,0,0,5.56,3.27,9.29-1.09s-1,21.27-28.24,21.27c0,0,13.62,3.28,21.91-.54,0,0-6,5.32-9.19,5.32,0,0,10.52-.24,12.63-3.15,0,0-5.53,13.58-21,13.82,0,0,5.26,1.7,12.89-1.45A53.74,53.74,0,0,1,1274,1206s17.81,4.36,30.93-1.73c-6.4,4-16,9.25-20.93,8,0,0,10.86,4.37,16.74,0,0,0-14.37,24.49-26.74,21.83,0,0,15.79,9.7,28.15-.73,0,0-5.79,9-13.68,8.73,0,0,2.37,2.18,9.21-1,0,0-4.74,17.46-25.26,17.94,0,0,21.31,8,33.42-6.3,0,0-17.9,36.62-42.37,35.65,0,0,30.26,8.24,41.31-8,0,0-7.1,17.95-20,17.22,0,0,8.51,2.84,15.66-2.69-7.81,7.68-27.78,25.48-46.71,27.18,0,0,20,7.52,27.36,1.21a49.83,49.83,0,0,1-16,11.64,34,34,0,0,0,12.59,3,18.07,18.07,0,0,1-9,4.35s7.72,1,14-1.07c-3.83,3.19-8.13,6.59-12.64,9.84-3.85,1.89-8.57,3.85-12.4,4.33a15.64,15.64,0,0,0,4.74.84c-6.91,4.35-13.93,7.87-20.16,9.27C1242.11,1365.51,1266.94,1369.11,1279.34,1364.62ZM1365,1375.4h0l-.26-.43C1364.78,1375.12,1364.88,1375.26,1365,1375.4Zm-76.56-.43-.25.43h0C1288.24,1375.26,1288.33,1375.12,1288.42,1375Z" transform="translate(-620.22 -233.97)"/><path class="cls-18" d="M1459.44,1298.13c-29.3-9.3-40.49-25.17-40.49-25.17,7.47,7.7,32.32,11.53,36.12,12.07-6-.94-17.08-6.1-25.21-10.22,10.5,3.39,23.53,3.78,23.53,3.78-12.22-2.36-24.63-16-31.28-24.37,13.06,14.48,29.38,10.93,29.38,10.93-13.09-1.39-26.13-20.73-33.08-32.83,6.21,8.8,12.18,8.68,12.18,8.68-5.5-1-11.19-17.1-11.19-17.1,12,19.95,29.92,18.52,29.92,18.52-15.07-1.22-29.72-23.4-29.72-23.4,9.36,13,25.85,7.12,25.85,7.12-18.52-1.22-30.13-30.33-30.13-30.33,5.67,7.39,17.72,7.53,21.34,7.39-5.22.12-10.4-2.55-14.23-5.19,8.61,4.12,20.37,1.87,20.37,1.87-9.56-.4-24.15-23.74-24.15-23.74,8.55,7.19,19.27,2.57,19.27,2.57-10.72-.13-20.22-14.79-20.22-14.79,7.19,9.5,20.22,6.65,20.22,6.65-14.39.27-27.82-22.79-27.82-22.79,5.56,9.36,14,5.56,14,5.56-9.77-.14-14.39-10.86-14.39-10.86,7.33,9.5,21.44,4.21,21.44,4.21-22.25-4.48-27.27-21-27.27-21,7.6,10.72,20.35,6.24,20.35,6.24-13.3,1.76-20.35-9-20.35-9,8.82,12.22,27.82,5.16,27.82,5.16-18,1.08-28.64-18.32-28.64-18.32,3.26,4.48,9.37,2.71,9.37,2.71-5,1-13.17-11-13.17-11,7.33,9,20.9,2.72,20.9,2.72-12.21,4.07-35.84-32-35.84-32s-23.62,36-35.83,32c0,0,13.57,6.24,20.89-2.72,0,0-8.14,11.94-13.16,11,0,0,6.11,1.77,9.36-2.71,0,0-10.58,19.4-28.63,18.32,0,0,19,7.06,27.82-5.16,0,0-7.06,10.72-20.35,9,0,0,12.75,4.48,20.35-6.24,0,0-5,16.55-27.27,21,0,0,14.11,5.29,21.44-4.21,0,0-4.62,10.72-14.39,10.86,0,0,8.41,3.8,14-5.56,0,0-13.44,23.06-27.82,22.79,0,0,13,2.85,20.22-6.65,0,0-9.5,14.66-20.22,14.79,0,0,10.72,4.62,19.27-2.57,0,0-14.59,23.34-24.16,23.74,0,0,11.76,2.25,20.38-1.87-3.83,2.64-9,5.31-14.24,5.19,3.62.14,15.67,0,21.34-7.39,0,0-11.6,29.11-30.12,30.33,0,0,16.49,5.9,25.85-7.12,0,0-14.66,22.18-29.72,23.4,0,0,17.91,1.43,29.92-18.52,0,0-5.7,16.08-11.19,17.1,0,0,6,.12,12.18-8.68-7,12.1-20,31.44-33.08,32.83,0,0,16.31,3.55,29.38-10.93-6.65,8.41-19.06,22-31.28,24.37,0,0,13-.39,23.53-3.78-8.13,4.12-19.18,9.28-25.21,10.22,3.8-.54,28.65-4.37,36.12-12.07,0,0-15.41,21.88-57.44,29.31,0,0,24.54,1.63,41.12-2.76-13.38,7.33-33.51,17.6-44.78,19.65,0,0,18.93,1.22,30.53-8.34,0,0-12,17.09-25.85,17.71,0,0,15.11,4.34,27.39-4-4.86,4-12.2,9.16-17.62,9.33,0,0,12.48,4.75,24.22-11,0,0-24.29,34.53-38.81,33.31,0,0,20.13,2.08,35.62-7.15a149.46,149.46,0,0,1-13.4,12.74H1458a149.46,149.46,0,0,1-13.4-12.74,50.52,50.52,0,0,0,14.87,5.69v-10.54a175.48,175.48,0,0,1-18.06-21.31c6.55,8.79,13.34,11.18,18.06,11.59v-2.34a59.22,59.22,0,0,1-11.46-7.59,29.39,29.39,0,0,0,11.46,4.58v-7.73a60.43,60.43,0,0,1-9.92-10.52,32.4,32.4,0,0,0,9.92,5.42v-4.48c-8.42-3.83-17.21-8.43-24.17-12.25,7.43,2,16.46,2.73,24.17,3Z" transform="translate(-620.22 -233.97)"/><path class="cls-19" d="M908.48,1406.33c-18.28,1.54-48.86-41.94-48.86-41.94,14.77,19.82,30.49,13.84,30.49,13.84-6.82-.21-16.06-6.74-22.18-11.75,15.46,10.55,34.48,5.09,34.48,5.09-17.42-.77-32.54-22.3-32.54-22.3,14.6,12,38.44,10.51,38.44,10.51-14.19-2.58-39.54-15.51-56.39-24.74,20.88,5.53,51.77,3.47,51.77,3.47-52.91-9.36-72.31-36.91-72.31-36.91,9.41,9.7,40.69,14.52,45.47,15.21-7.59-1.19-21.5-7.69-31.74-12.87,13.23,4.26,29.63,4.75,29.63,4.75-15.39-3-31-20.09-39.38-30.67,16.45,18.22,37,13.76,37,13.76-16.47-1.75-32.9-26.11-41.64-41.34,7.81,11.09,15.33,10.93,15.33,10.93-6.91-1.28-14.09-21.53-14.09-21.53,15.12,25.12,37.67,23.33,37.67,23.33-19-1.54-37.41-29.48-37.41-29.48,11.78,16.41,32.54,9,32.54,9-23.32-1.53-37.93-38.18-37.93-38.18,7.14,9.3,22.31,9.47,26.87,9.3-6.58.15-13.1-3.21-17.92-6.54,10.85,5.2,25.65,2.37,25.65,2.37-12-.52-30.41-29.9-30.41-29.9,10.76,9,24.26,3.24,24.26,3.24-13.5-.17-25.46-18.62-25.46-18.62,9.06,12,25.46,8.37,25.46,8.37-18.11.34-35-28.7-35-28.7,7,11.79,17.59,7,17.59,7-12.3-.17-18.11-13.67-18.11-13.67,9.23,12,27,5.29,27,5.29-28-5.63-34.34-26.48-34.34-26.48C822,1129.65,838,1124,838,1124c-16.74,2.22-25.62-11.27-25.62-11.27,11.1,15.37,35,6.49,35,6.49-22.72,1.37-36-23.06-36-23.06,4.1,5.63,11.79,3.41,11.79,3.41-6.32,1.2-16.57-13.84-16.57-13.84,9.23,11.28,26.31,3.42,26.31,3.42-15.38,5.13-45.12-40.22-45.12-40.22s-29.74,45.35-45.12,40.22c0,0,17.09,7.86,26.31-3.42,0,0-10.25,15-16.57,13.84,0,0,7.69,2.22,11.79-3.41,0,0-13.33,24.43-36,23.06,0,0,23.92,8.88,35-6.49,0,0-8.88,13.49-25.62,11.27,0,0,16.05,5.64,25.62-7.86,0,0-6.32,20.85-34.34,26.48,0,0,17.77,6.67,27-5.29,0,0-5.81,13.5-18.11,13.67,0,0,10.59,4.78,17.59-7,0,0-16.91,29-35,28.7,0,0,16.4,3.59,25.46-8.37,0,0-12,18.45-25.46,18.62,0,0,13.5,5.81,24.26-3.24,0,0-18.37,29.38-30.41,29.9,0,0,14.8,2.83,25.65-2.37-4.82,3.33-11.34,6.69-17.92,6.54,4.56.17,19.73,0,26.87-9.3,0,0-14.61,36.65-37.93,38.18,0,0,20.76,7.44,32.54-9,0,0-18.45,27.94-37.41,29.48,0,0,22.55,1.79,37.67-23.33,0,0-7.18,20.25-14.09,21.53,0,0,7.52.16,15.33-10.93-8.74,15.23-25.17,39.59-41.64,41.34,0,0,20.54,4.46,37-13.76-8.38,10.58-24,27.7-39.39,30.67,0,0,16.4-.49,29.63-4.75-10.24,5.18-24.15,11.68-31.74,12.87,4.78-.69,36.06-5.51,45.47-15.21,0,0-19.4,27.55-72.31,36.91,0,0,30.89,2.06,51.77-3.47-16.85,9.23-42.2,22.16-56.39,24.74,0,0,23.84,1.54,38.44-10.51,0,0-15.12,21.53-32.54,22.3,0,0,19,5.46,34.48-5.09-6.12,5-15.36,11.54-22.18,11.75,0,0,15.72,6,30.49-13.84,0,0-30.58,43.48-48.86,41.94,0,0,25.34,2.62,44.85-9a187.48,187.48,0,0,1-16.88,16h185.5a187.48,187.48,0,0,1-16.88-16C883.14,1409,908.48,1406.33,908.48,1406.33Z" transform="translate(-620.22 -233.97)"/><path class="cls-20" d="M917.32,1402.79c-10,6.2-29.84,17.5-40.68,17.3,0,0,3.2.48,8,.93h172.43c4.81-.45,8-.93,8-.93-10.84.2-30.65-11.1-40.68-17.3,14.06,5.09,42.21,1,42.21,1-7.06-1.59-15-5.57-22.86-10.51a17.45,17.45,0,0,0,5.38-1c-4.35-.53-9.7-2.76-14.06-4.91-5.11-3.67-10-7.53-14.33-11.14,7.13,2.31,15.88,1.21,15.88,1.21a20.52,20.52,0,0,1-10.24-4.94,38.72,38.72,0,0,0,14.28-3.39,56.74,56.74,0,0,1-18.2-13.2c8.35,7.15,31-1.37,31-1.37-21.46-1.94-44.1-22.11-53-30.82,8.11,6.27,17.76,3,17.76,3-14.62.82-22.67-19.52-22.67-19.52,12.53,18.42,46.84,9.07,46.84,9.07-27.75,1.1-48-40.42-48-40.42,13.72,16.22,37.88,7.15,37.88,7.15-23.27-.55-28.64-20.35-28.64-20.35,7.76,3.58,10.45,1.1,10.45,1.1-9,.28-15.52-9.89-15.52-9.89,14,11.82,31.92.82,31.92.82-14,3-30.32-24.74-30.32-24.74,6.67,4.94,19,0,19,0-5.64,1.38-16.48-4.54-23.73-9.11,14.86,6.91,35.06,2,35.06,2a60.91,60.91,0,0,1-37.58-20.9c8.65,3.58,14.61,1.65,14.61,1.65-17.6-.27-23.86-15.67-23.86-15.67,2.38,3.3,14.32,3.57,14.32,3.57-3.58,0-10.42-6-10.42-6,9.4,4.33,24.83.62,24.83.62-30.87,0-36.24-29.08-32-24.13s10.53,1.24,10.53,1.24c-11.42-4.92-16.67-20.39-19.06-32.86v-17.25a110.65,110.65,0,0,1-1,11.16,107.15,107.15,0,0,1-1-11.16v17.25c-2.4,12.47-7.64,27.94-19.07,32.86,0,0,6.3,3.71,10.53-1.24s-1.13,24.13-32,24.13c0,0,15.44,3.71,24.83-.62,0,0-6.83,6-10.41,6,0,0,11.93-.27,14.32-3.57,0,0-6.27,15.4-23.87,15.67,0,0,6,1.93,14.62-1.65,0,0-13.43,17.6-37.59,20.9,0,0,20.2,4.95,35.06-2-7.25,4.57-18.09,10.49-23.72,9.11,0,0,12.32,4.94,19,0,0,0-16.3,27.77-30.32,24.74,0,0,17.9,11,31.92-.82,0,0-6.56,10.17-15.51,9.89,0,0,2.68,2.48,10.44-1.1,0,0-5.37,19.8-28.64,20.35,0,0,24.16,9.07,37.89-7.15,0,0-20.29,41.52-48,40.42,0,0,34.3,9.35,46.83-9.07,0,0-8.05,20.34-22.67,19.52,0,0,9.65,3.22,17.76-3-8.85,8.71-31.5,28.88-53,30.82,0,0,22.67,8.52,31,1.37a56.62,56.62,0,0,1-18.19,13.2,38.63,38.63,0,0,0,14.27,3.39,20.44,20.44,0,0,1-10.24,4.94s8.76,1.1,15.88-1.21c-4.33,3.61-9.21,7.47-14.33,11.14-4.36,2.15-9.71,4.38-14.06,4.91a17.45,17.45,0,0,0,5.38,1c-7.83,4.94-15.8,8.92-22.86,10.51C875.11,1403.79,903.27,1407.88,917.32,1402.79Zm97.1,12.22h0c-.19-.32-.28-.49-.28-.49C1014.2,1414.68,1014.3,1414.85,1014.42,1415Zm-86.8-.49-.29.49h0Z" transform="translate(-620.22 -233.97)"/><path class="cls-21" d="M1459.44,1691.44V1488.69c-18.54-.18-37.07-1.16-55.54-2.81-11.39-1-22.74-2.34-34.08-3.76l-.25,0-.3,0-3.4-.48q-4.55-.64-9.07-1.33-8.52-1.29-17-2.73c-45.38-7.66-90.22-18.22-134.77-29.7-87.92-22.65-175.18-48.89-265-63-82.64-13-166.43-15.82-248.49,2.63a466.11,466.11,0,0,0-70.82,21.86v282.15a33.65,33.65,0,0,0,33.65,33.64h771.46A33.65,33.65,0,0,0,1459.44,1691.44Z" transform="translate(-620.22 -233.97)"/><circle class="cls-22" cx="1219.92" cy="877.43" r="121.38" transform="translate(-883.35 885.64) rotate(-45)"/><g class="cls-23"><path class="cls-24" d="M1438.24,350.28c-13.19-9.5-22.59-17.39-39.47-12.64-2.11-19.52-21.63-19-34.82-6.86,6.86-29-33.77-44.32-54.35-28.49-25.32,19-9.36,39.4,3.17,42.21-6.31,0-11.48,3-11.36,5.78Z" transform="translate(-620.22 -233.97)"/></g><path class="cls-25" d="M1308.74,610.43h17.11a6.21,6.21,0,0,1,6.19,6.21v0a6.19,6.19,0,0,1-6.21,6.19h-31.21a6.19,6.19,0,0,0-6.2,6.2v0a6.2,6.2,0,0,0,6.2,6.2h145.16a6.21,6.21,0,0,0,6.2-6.2v0a6.2,6.2,0,0,0-6.2-6.2h-58.6a5.69,5.69,0,0,1-1.18-.12h-3.7a6.19,6.19,0,0,1-6.19-6.2v0a6.2,6.2,0,0,1,6.2-6.2l32.19,0a6.19,6.19,0,0,0,4.84-6v0a6.2,6.2,0,0,0-6.19-6.2l-98.4-.1a6.21,6.21,0,0,0-6.21,6.19v0A6.21,6.21,0,0,0,1308.74,610.43Z" transform="translate(-620.22 -233.97)"/><path class="cls-26" d="M1039.59,820.91l24.78.09v.26h.36a9.77,9.77,0,0,1,9.76,9.78v.06a9.76,9.76,0,0,1-9.78,9.76h-.34v0l-137.21,0a9.77,9.77,0,0,0-9.78,9.76v.06a9.76,9.76,0,0,0,9.75,9.78l114.9,0h9.28a9.78,9.78,0,0,1,9.76,9.78v.06a9.77,9.77,0,0,1-9.78,9.76h-8.69a5.72,5.72,0,0,1-.58,0h-16.21a9.78,9.78,0,0,0-9.77,9.77v.06a9.77,9.77,0,0,0,9.77,9.77H1150.6a9.77,9.77,0,0,0,9.77-9.77v-.06a9.78,9.78,0,0,0-9.77-9.77h-12.11a9.46,9.46,0,0,1-1.86-.18h-5.83a9.77,9.77,0,0,1-9.75-9.78v-.06a9.76,9.76,0,0,1,9.77-9.76l47.37,0a9.76,9.76,0,0,0,7.63-9.52v-.06a9.76,9.76,0,0,0-9.75-9.78l-59.61-.07v-.28h-5.77a9.76,9.76,0,0,1-9.76-9.78v-.06a9.76,9.76,0,0,1,9.78-9.76h0c.73,0,110.47-.14,111.11-.39,2.15-.83,5.57-4.81,5.57-7.26v-5c0-3.17-4.47-7-7.64-7H1102l-62.43-.13a8.08,8.08,0,0,0-8.09,8.07v3.44A8.08,8.08,0,0,0,1039.59,820.91Z" transform="translate(-620.22 -233.97)"/><g class="cls-27"><path class="cls-24" d="M657.85,575c14.29-15,41.36-12,60.16-12.79h0c5.26-15,16.54-29.32,32.33-33.08,12-3,30.83-2.26,33.84,12.78,0,0-1.22-38.34,37.33-38.34s30.34,42.1,30.34,42.1c18.8-14.28,40.61-15.79,54.89,5.27,3.76,5.26,1.51,7.52,7.52,9,3,1.5,11.28-.75,15.79,0,9.78,1.5,28.58,15,28.58,15Z" transform="translate(-620.22 -233.97)"/></g></svg>