<svg id="Layer_1" data-name="Layer 1" xmlns="http://www.w3.org/2000/svg" xmlns:xlink="http://www.w3.org/1999/xlink" viewBox="0 0 839.22 1491.11"><defs><style>.cls-1{fill:url(#linear-gradient);}.cls-2{fill:url(#linear-gradient-2);}.cls-3{fill:url(#linear-gradient-3);}.cls-4{fill:#43658e;}.cls-5{fill:#53819b;}.cls-6{fill:url(#linear-gradient-4);}.cls-7{fill:url(#linear-gradient-5);}.cls-8{fill:url(#linear-gradient-6);}.cls-9{fill:url(#linear-gradient-7);}.cls-10{fill:url(#linear-gradient-8);}.cls-11{fill:url(#linear-gradient-9);}.cls-12{fill:url(#linear-gradient-10);}.cls-13{fill:url(#linear-gradient-11);}.cls-14{fill:url(#linear-gradient-12);}.cls-15{fill:url(#linear-gradient-13);}.cls-16{fill:url(#linear-gradient-14);}.cls-17{fill:url(#linear-gradient-15);}.cls-18{fill:url(#linear-gradient-16);}.cls-19{fill:url(#linear-gradient-17);}.cls-20,.cls-25{opacity:0.1;}.cls-21,.cls-22,.cls-23,.cls-25{fill:#fff;}.cls-22{opacity:0.6;}.cls-23{opacity:0.3;}.cls-24{opacity:0.25;}</style><linearGradient id="linear-gradient" x1="419.84" y1="883.61" x2="419.84" y2="44.86" gradientUnits="userSpaceOnUse"><stop offset="0.01" stop-color="#e0fcf7"/><stop offset="0.27" stop-color="#71e2cd"/><stop offset="0.69" stop-color="#238fb8"/><stop offset="1" stop-color="#31437c"/></linearGradient><linearGradient id="linear-gradient-2" x1="1055.01" y1="1386.08" x2="1055.01" y2="1161.37" gradientUnits="userSpaceOnUse"><stop offset="0" stop-color="#53819b"/><stop offset="1" stop-color="#406b89"/></linearGradient><linearGradient id="linear-gradient-3" x1="1023.12" y1="1304.19" x2="1023.12" y2="1021.05" gradientUnits="userSpaceOnUse"><stop offset="0" stop-color="#43658e"/><stop offset="1" stop-color="#38557f"/></linearGradient><linearGradient id="linear-gradient-4" x1="1151.95" y1="1389.75" x2="1151.95" y2="1311.38" gradientUnits="userSpaceOnUse"><stop offset="0" stop-color="#415993"/><stop offset="1" stop-color="#31437c"/></linearGradient><linearGradient id="linear-gradient-5" x1="1140.44" y1="1220.26" x2="1144.16" y2="1247.49" xlink:href="#linear-gradient-4"/><linearGradient id="linear-gradient-6" x1="1212.16" y1="1210.38" x2="1212.16" y2="1242.45" xlink:href="#linear-gradient-4"/><linearGradient id="linear-gradient-7" x1="1445.2" y1="1109.15" x2="1445.2" y2="1135.55" xlink:href="#linear-gradient-4"/><linearGradient id="linear-gradient-8" x1="1075.65" y1="1236.92" x2="1077.11" y2="1280.01" gradientUnits="userSpaceOnUse"><stop offset="0" stop-color="#2f4b7c"/><stop offset="1" stop-color="#223a6b"/></linearGradient><linearGradient id="linear-gradient-9" x1="875.01" y1="1134.09" x2="875.01" y2="1193.25" xlink:href="#linear-gradient-8"/><linearGradient id="linear-gradient-10" x1="1048.62" y1="1221.27" x2="1048.62" y2="1250.49" xlink:href="#linear-gradient-8"/><linearGradient id="linear-gradient-11" x1="1074.26" y1="1519.07" x2="1074.26" y2="1387.02" xlink:href="#linear-gradient-8"/><linearGradient id="linear-gradient-12" x1="1282.91" y1="1185.49" x2="1279.26" y2="1232.97" xlink:href="#linear-gradient-8"/><linearGradient id="linear-gradient-13" x1="1360.76" y1="1139.71" x2="1360.76" y2="1220.57" xlink:href="#linear-gradient-8"/><linearGradient id="linear-gradient-14" x1="1413.01" y1="1117.45" x2="1411.41" y2="1191.32" xlink:href="#linear-gradient-8"/><linearGradient id="linear-gradient-15" x1="813.51" y1="1159.12" x2="816.79" y2="1247.86" gradientUnits="userSpaceOnUse"><stop offset="0" stop-color="#253c6b"/><stop offset="1" stop-color="#172a56"/></linearGradient><linearGradient id="linear-gradient-16" x1="1005.06" y1="1196.92" x2="1005.06" y2="1295.15" xlink:href="#linear-gradient-15"/><linearGradient id="linear-gradient-17" x1="1074.26" y1="1792.98" x2="1074.26" y2="1518.63" xlink:href="#linear-gradient-15"/></defs><rect class="cls-1" x="0.47" width="838.75" height="1491.11" rx="30.7"/><path class="cls-2" d="M884.5,1051.1S887.78,1012.48,919,996s34.36-31.45,42.65-26.41,46.09,16.55,51,26.41,19.72,56.82,29.58,76.89,42.6,64.45,58.28,62.8,33.75,3.33,38.68,14.81,31.23,57,37.8,67.12,35.78,62.69,34.33,67.62,26.87,74,26.87,74l-100.64,44.28-215.14-46.87s-41.49-95.16-48.89-105S884.5,1051.1,884.5,1051.1Z" transform="translate(-654.42 -236.13)"/><path class="cls-3" d="M654.83,943.45s57.35-52.58,68.9-49.3,50.43-14.79,75.76-18.07,48.73-3.29,78.9,26.29-.15,31.22,17.18,87.1,86.92,161,99.17,216.32,48.14,168.14,62.57,175.58,334.5,32.6,334.5,32.6L1079,1551.86,654.42,1444.69Z" transform="translate(-654.42 -236.13)"/><path class="cls-4" d="M753.85,918.87c8,16.8,22.65,30,24.11,35.79s8-27.76,8-27.76,29.58-1.46,36,0,13.7-22.64,23.2-23.37,24.1,24.83,20.45,40.9,16.74,58.44,6.18,62.09-55.12,13.88-45.62,17.53,40.9-10.23,53.32-5.84,57.51,60.54,57.59,60.64c-17.65-33.59-34.21-65.85-41.51-89.38-17.33-55.88,13-57.52-17.18-87.1s-53.58-29.58-78.9-26.29-64.2,21.36-75.76,18.07c-4.76-1.35-17.3,6.78-30.39,16.82h0S745.82,902.07,753.85,918.87Z" transform="translate(-654.42 -236.13)"/><path class="cls-5" d="M947.36,999.22c4.81-7.13,13-20.27,18-14.25s24.1-.56,22.46,17.25-5.48,27.13,6,14,18.63,5.48,23.56,19.72,20.27,57.52-3.29,64.1-9.82,4.24,18.37,9.79,40.81,28.22,46.91,23.62,16.35,13.7,14.16,19.73c-1,2.86,5.83-7.17,14.5-17.71a57.9,57.9,0,0,0-7.47.28c-15.68,1.65-48.42-42.73-58.28-62.8s-24.65-67-29.58-76.89-42.73-21.36-51-26.41S950.23,979.61,919,996c-.64.34-1.26.7-1.88,1.06.18,3.28,1.76,5.61,6.55,4.31C935.73,998.12,942.55,1006.34,947.36,999.22Z" transform="translate(-654.42 -236.13)"/><path class="cls-6" d="M1493.64,1172.43c-4.78-.32-9.58-.44-14.37-.46-15.89-.06-31.82,0-47.67,1.23-32.92,2.56-64.62,10.56-91.94,29.75-12,8.43-23.16,18-34.09,27.77-5.15,4.61-10.27,9.25-15.47,13.8-2.6,2.27-5.21,4.52-7.86,6.72-1.32,1.1-2.64,2.19-4,3.27l-2.37,1.89-.85.64c-5,3.72-10.18,7.3-15.57,10.51q-4.48,2.67-9.17,5a70,70,0,0,1-9.58,4.16c-14.7,5.49-30.07,8.84-45.43,11.91-14.85,3-29.79,5.64-44.4,9.66-16.36,4.5-31.79,11.37-47.34,18-10.54,4.52-27.91,10.88-39.78,12.66-17.31,2.58-35.3.92-52.62-.59-34.89-3-69.57-4.35-104.54-1.73-15.91,1.2-31.77,3.09-47.53,5.51a39,39,0,0,0-19.31-1.67c-17.38,2.76-28.15,18.29-29.38,35.09-2.56,34.82,32.15,53.5,54.28,73.67,24.19,22,46.93,45.25,73.88,64.06,25.45,17.77,53.31,31.69,82.23,42.87,60.23,23.29,125.34,32.31,189.65,33.06,35.1.41,70.18-1.64,105.11-5s70.43-7.1,105.13-13.22c25.09-4.43,50.55-11.47,73-24Zm-646,192-.11,0c.18,0,.3,0,.34,0Z" transform="translate(-654.42 -236.13)"/><path class="cls-7" d="M1190.67,1319.15c-5.71.48-15.26-13.1-15.26-13.1,4.62,6.19,9.53,4.32,9.53,4.32-2.14-.07-5-2.11-6.93-3.67,4.83,3.3,10.77,1.59,10.77,1.59-5.45-.24-10.17-7-10.17-7,4.56,3.77,12,3.29,12,3.29-4.43-.81-12.35-4.85-17.61-7.73,6.52,1.73,16.17,1.08,16.17,1.08-16.53-2.92-22.59-11.52-22.59-11.52,2.94,3,12.71,4.53,14.2,4.74-2.37-.37-6.71-2.4-9.91-4a38.9,38.9,0,0,0,9.25,1.49c-4.8-.93-9.68-6.28-12.3-9.58a12.79,12.79,0,0,0,11.56,4.3c-5.15-.55-10.28-8.16-13-12.91,2.44,3.46,4.79,3.41,4.79,3.41-2.16-.4-4.4-6.73-4.4-6.73,4.72,7.85,11.76,7.29,11.76,7.29-5.92-.48-11.68-9.21-11.68-9.21,3.68,5.13,10.16,2.8,10.16,2.8-7.28-.48-11.85-11.92-11.85-11.92,2.23,2.9,7,3,8.4,2.9a10,10,0,0,1-5.6-2c3.39,1.62,8,.74,8,.74-3.76-.16-9.5-9.34-9.5-9.34,3.36,2.83,7.58,1,7.58,1-4.22,0-8-5.81-8-5.81,2.83,3.73,8,2.61,8,2.61-5.66.11-10.94-9-10.94-9,2.19,3.68,5.5,2.18,5.5,2.18-3.85-.05-5.66-4.26-5.66-4.26,2.88,3.73,8.43,1.65,8.43,1.65-8.75-1.76-10.73-8.27-10.73-8.27,3,4.21,8,2.45,8,2.45a8.59,8.59,0,0,1-8-3.52c3.47,4.8,10.94,2,10.94,2-7.09.43-11.26-7.21-11.26-7.21,1.29,1.77,3.69,1.07,3.69,1.07-2,.38-5.18-4.32-5.18-4.32,2.88,3.52,8.22,1.07,8.22,1.07-4.8,1.6-14.09-12.57-14.09-12.57s-9.3,14.17-14.1,12.57c0,0,5.34,2.45,8.22-1.07,0,0-3.2,4.7-5.18,4.32,0,0,2.4.7,3.69-1.07,0,0-4.17,7.64-11.26,7.21,0,0,7.47,2.77,10.94-2a8.59,8.59,0,0,1-8,3.52s5,1.76,8-2.45c0,0-2,6.51-10.73,8.27,0,0,5.55,2.08,8.43-1.65,0,0-1.81,4.21-5.66,4.26,0,0,3.31,1.5,5.5-2.18,0,0-5.28,9.07-10.94,9,0,0,5.12,1.12,7.95-2.61,0,0-3.73,5.76-7.95,5.81,0,0,4.22,1.82,7.58-1,0,0-5.74,9.18-9.5,9.34,0,0,4.62.88,8-.74a10,10,0,0,1-5.6,2c1.43.06,6.17,0,8.4-2.9,0,0-4.57,11.44-11.85,11.92,0,0,6.48,2.33,10.17-2.8,0,0-5.77,8.73-11.69,9.21,0,0,7,.56,11.76-7.29,0,0-2.24,6.33-4.4,6.73,0,0,2.35.05,4.79-3.41-2.73,4.75-7.86,12.36-13,12.91a12.79,12.79,0,0,0,11.56-4.3c-2.62,3.3-7.5,8.65-12.3,9.58a38.9,38.9,0,0,0,9.25-1.49c-3.2,1.62-7.54,3.65-9.91,4,1.49-.21,11.26-1.72,14.2-4.74,0,0-6.06,8.6-22.59,11.52,0,0,9.65.65,16.17-1.08-5.26,2.88-13.18,6.92-17.61,7.73,0,0,7.45.48,12-3.29,0,0-4.72,6.73-10.17,7,0,0,5.95,1.71,10.77-1.59-1.91,1.56-4.79,3.6-6.93,3.67,0,0,4.91,1.87,9.53-4.32,0,0-9.55,13.58-15.26,13.1,0,0,7.91.82,14-2.81a59.85,59.85,0,0,1-5.28,5h58a59.85,59.85,0,0,1-5.28-5C1182.76,1320,1190.67,1319.15,1190.67,1319.15Z" transform="translate(-654.42 -236.13)"/><path class="cls-8" d="M1188.7,1304.92c-4.39,2.72-13.08,7.68-17.83,7.59,0,0,1.4.21,3.51.41H1250c2.1-.2,3.5-.41,3.5-.41-4.75.09-13.43-4.87-17.82-7.59,6.16,2.23,18.49.44,18.49.44a34,34,0,0,1-10-4.6,7.68,7.68,0,0,0,2.35-.42,21.68,21.68,0,0,1-6.16-2.15c-2.24-1.61-4.38-3.31-6.28-4.89a18.8,18.8,0,0,0,7,.53,9,9,0,0,1-4.49-2.16,17,17,0,0,0,6.26-1.49,25,25,0,0,1-8-5.78c3.66,3.13,13.6-.61,13.6-.61-9.4-.84-19.33-9.68-23.21-13.5a9,9,0,0,0,7.78,1.33c-6.4.37-9.93-8.55-9.93-8.55,5.49,8.07,20.52,4,20.52,4-12.15.48-21-17.72-21-17.72,6,7.11,16.61,3.14,16.61,3.14a13,13,0,0,1-12.55-8.92c3.4,1.57,4.57.48,4.57.48-3.92.12-6.79-4.34-6.79-4.34,6.14,5.18,14,.36,14,.36-6.14,1.33-13.29-10.84-13.29-10.84,2.93,2.17,8.33,0,8.33,0-2.47.61-7.22-2-10.4-4,6.51,3,15.36.86,15.36.86a26.71,26.71,0,0,1-16.47-9.16,10,10,0,0,0,6.41.72,11.72,11.72,0,0,1-10.46-6.87c1,1.45,6.27,1.57,6.27,1.57-1.57,0-4.56-2.65-4.56-2.65,4.12,1.9,10.88.28,10.88.28-13.53,0-15.88-12.75-14-10.58s4.62.55,4.62.55c-5-2.16-7.31-8.94-8.36-14.41V1178a45.34,45.34,0,0,1-.44,4.88,46.68,46.68,0,0,1-.43-4.88v7.55c-1.06,5.47-3.35,12.25-8.36,14.41,0,0,2.76,1.62,4.62-.55s-.5,10.58-14,10.58c0,0,6.76,1.62,10.88-.28,0,0-3,2.65-4.57,2.65,0,0,5.23-.12,6.28-1.57a11.74,11.74,0,0,1-10.46,6.87,10,10,0,0,0,6.41-.72,26.75,26.75,0,0,1-16.48,9.16s8.86,2.17,15.37-.86c-3.18,2-7.93,4.6-10.4,4,0,0,5.4,2.17,8.32,0,0,0-7.14,12.17-13.29,10.84,0,0,7.85,4.82,14-.36,0,0-2.87,4.46-6.8,4.34,0,0,1.18,1.09,4.58-.48a13,13,0,0,1-12.55,8.92s10.59,4,16.6-3.14c0,0-8.89,18.2-21,17.72,0,0,15,4.09,20.53-4,0,0-3.53,8.92-9.94,8.55a9,9,0,0,0,7.79-1.33c-3.88,3.82-13.81,12.66-23.21,13.5,0,0,9.93,3.74,13.59.61a24.85,24.85,0,0,1-8,5.78,17,17,0,0,0,6.25,1.49,9,9,0,0,1-4.48,2.16,18.8,18.8,0,0,0,7-.53c-1.9,1.58-4,3.28-6.29,4.89a21.47,21.47,0,0,1-6.16,2.15,7.79,7.79,0,0,0,2.36.42,33.91,33.91,0,0,1-10,4.6S1182.54,1307.15,1188.7,1304.92Zm42.55,5.36h0l-.13-.22Zm-38-.22-.12.22h0A1.64,1.64,0,0,0,1193.21,1310.06Z" transform="translate(-654.42 -236.13)"/><path class="cls-9" d="M1425,1188.43c-3.79,2.35-11.29,6.62-15.39,6.55,0,0,1.21.18,3,.35h65.23c1.82-.17,3-.35,3-.35-4.09.07-11.59-4.2-15.38-6.55,5.31,1.93,16,.38,16,.38a29.51,29.51,0,0,1-8.64-4,6.7,6.7,0,0,0,2-.37,18.55,18.55,0,0,1-5.32-1.85c-1.93-1.39-3.78-2.85-5.42-4.22a16.31,16.31,0,0,0,6,.46,7.76,7.76,0,0,1-3.87-1.87,14.61,14.61,0,0,0,5.4-1.28,21.49,21.49,0,0,1-6.89-5c3.16,2.71,11.74-.52,11.74-.52-8.12-.73-16.69-8.36-20-11.65a7.76,7.76,0,0,0,6.72,1.15c-5.53.31-8.58-7.39-8.58-7.39,4.74,7,17.72,3.44,17.72,3.44-10.49.41-18.17-15.29-18.17-15.29,5.19,6.13,14.34,2.7,14.34,2.7a11.19,11.19,0,0,1-10.84-7.7c2.94,1.36,4,.42,4,.42-3.38.1-5.87-3.74-5.87-3.74,5.31,4.47,12.08.31,12.08.31-5.31,1.14-11.47-9.36-11.47-9.36,2.52,1.87,7.18,0,7.18,0-2.13.52-6.23-1.72-9-3.45,5.63,2.62,13.27.74,13.27.74a23.07,23.07,0,0,1-14.22-7.9,8.62,8.62,0,0,0,5.53.62,10.12,10.12,0,0,1-9-5.93c.9,1.25,5.42,1.36,5.42,1.36-1.36,0-3.94-2.29-3.94-2.29,3.55,1.64,9.39.24,9.39.24-11.68,0-13.71-11-12.11-9.13s4,.47,4,.47c-4.33-1.86-6.31-7.72-7.22-12.43v-6.53a41,41,0,0,1-.38,4.22c-.33-2.46-.37-4.22-.37-4.22v6.53c-.91,4.71-2.89,10.57-7.22,12.43,0,0,2.39,1.4,4-.47s-.43,9.13-12.11,9.13c0,0,5.84,1.4,9.39-.24,0,0-2.58,2.29-3.94,2.29,0,0,4.52-.11,5.42-1.36a10.12,10.12,0,0,1-9,5.93,8.62,8.62,0,0,0,5.53-.62,23.07,23.07,0,0,1-14.22,7.9s7.64,1.88,13.26-.74c-2.74,1.73-6.84,4-9,3.45,0,0,4.66,1.87,7.18,0,0,0-6.17,10.5-11.47,9.36,0,0,6.77,4.16,12.08-.31,0,0-2.49,3.84-5.87,3.74,0,0,1,.94,4-.42a11.19,11.19,0,0,1-10.84,7.7s9.14,3.43,14.34-2.7c0,0-7.68,15.7-18.17,15.29,0,0,13,3.53,17.71-3.44,0,0-3,7.7-8.57,7.39a7.76,7.76,0,0,0,6.72-1.15c-3.35,3.29-11.92,10.92-20,11.65,0,0,8.58,3.23,11.74.52a21.49,21.49,0,0,1-6.89,5,14.61,14.61,0,0,0,5.4,1.28,7.76,7.76,0,0,1-3.87,1.87,16.31,16.31,0,0,0,6-.46c-1.64,1.37-3.49,2.83-5.43,4.22a18.39,18.39,0,0,1-5.31,1.85,6.7,6.7,0,0,0,2,.37,29.51,29.51,0,0,1-8.64,4S1419.63,1190.36,1425,1188.43Zm36.73,4.63h0l-.11-.19Zm-32.83-.19-.11.19h0Z" transform="translate(-654.42 -236.13)"/><path class="cls-10" d="M1053.12,1345.79c-4.91,3-14.62,8.58-19.93,8.48,0,0,1.57.23,3.92.45h84.49c2.35-.22,3.91-.45,3.91-.45-5.31.1-15-5.44-19.93-8.48,6.89,2.49,20.68.49,20.68.49a38.15,38.15,0,0,1-11.2-5.15,8.4,8.4,0,0,0,2.64-.47,24,24,0,0,1-6.89-2.4c-2.51-1.8-4.9-3.69-7-5.47a20.83,20.83,0,0,0,7.78.6,10.05,10.05,0,0,1-5-2.42,19,19,0,0,0,7-1.66,27.7,27.7,0,0,1-8.92-6.47c4.09,3.5,15.2-.67,15.2-.67-10.51-1-21.61-10.83-25.95-15.1a10,10,0,0,0,8.7,1.49c-7.16.41-11.1-9.56-11.1-9.56,6.13,9,22.94,4.44,22.94,4.44-13.59.54-23.53-19.8-23.53-19.8,6.72,7.95,18.56,3.5,18.56,3.5-11.4-.27-14-10-14-10,3.8,1.75,5.12.54,5.12.54-4.39.14-7.6-4.85-7.6-4.85,6.87,5.8,15.64.41,15.64.41-6.87,1.48-14.86-12.13-14.86-12.13,3.27,2.43,9.3,0,9.3,0-2.76.68-8.07-2.22-11.62-4.46,7.28,3.38,17.18,1,17.18,1a29.88,29.88,0,0,1-18.42-10.24c4.24,1.75,7.16.81,7.16.81a13.11,13.11,0,0,1-11.69-7.68c1.17,1.62,7,1.75,7,1.75-1.76,0-5.11-3-5.11-3,4.6,2.12,12.17.3,12.17.3-15.13,0-17.76-14.25-15.69-11.82s5.17.6,5.17.6c-5.6-2.4-8.17-10-9.35-16.1v-8.45a52.86,52.86,0,0,1-.49,5.47,52.86,52.86,0,0,1-.49-5.47v8.45c-1.17,6.11-3.74,13.7-9.34,16.1,0,0,3.09,1.82,5.16-.6s-.56,11.82-15.68,11.82c0,0,7.56,1.82,12.16-.3,0,0-3.35,3-5.1,3,0,0,5.85-.13,7-1.75a13.11,13.11,0,0,1-11.7,7.68s2.93.94,7.16-.81a29.84,29.84,0,0,1-18.41,10.24s9.89,2.42,17.18-1c-3.56,2.24-8.87,5.14-11.63,4.46,0,0,6,2.43,9.31,0,0,0-8,13.61-14.86,12.13,0,0,8.77,5.39,15.64-.41,0,0-3.22,5-7.6,4.85,0,0,1.31,1.21,5.11-.54,0,0-2.63,9.7-14,10,0,0,11.84,4.45,18.56-3.5,0,0-9.94,20.34-23.53,19.8,0,0,16.81,4.58,23-4.44,0,0-4,10-11.11,9.56a10,10,0,0,0,8.7-1.49c-4.34,4.27-15.43,14.15-26,15.1,0,0,11.11,4.17,15.2.67a27.73,27.73,0,0,1-8.91,6.47,18.87,18.87,0,0,0,7,1.66,10.05,10.05,0,0,1-5,2.42,20.83,20.83,0,0,0,7.78-.6c-2.12,1.78-4.51,3.67-7,5.47a23.81,23.81,0,0,1-6.89,2.4,8.48,8.48,0,0,0,2.64.47,38.15,38.15,0,0,1-11.2,5.15S1046.24,1348.28,1053.12,1345.79Zm47.58,6h0l-.14-.24Zm-42.53-.24-.14.24h0Z" transform="translate(-654.42 -236.13)"/><path class="cls-11" d="M947.36,1316.52c-11,.92-29.28-25.14-29.28-25.14,8.85,11.88,18.27,8.3,18.27,8.3-4.09-.13-9.63-4-13.29-7,9.26,6.32,20.66,3,20.66,3-10.44-.46-19.5-13.36-19.5-13.36,8.75,7.22,23,6.3,23,6.3-8.51-1.55-23.7-9.3-33.8-14.83,12.52,3.31,31,2.08,31,2.08-31.71-5.61-43.34-22.12-43.34-22.12,5.64,5.81,24.39,8.7,27.26,9.12-4.55-.71-12.89-4.61-19-7.72,7.93,2.56,17.76,2.85,17.76,2.85-9.22-1.78-18.58-12-23.6-18.38a24.5,24.5,0,0,0,22.16,8.25c-9.87-1-19.71-15.65-25-24.78,4.68,6.65,9.19,6.55,9.19,6.55-4.15-.76-8.45-12.9-8.45-12.9,9.06,15,22.58,14,22.58,14-11.37-.92-22.43-17.66-22.43-17.66,7.07,9.83,19.51,5.37,19.51,5.37-14-.92-22.73-22.88-22.73-22.88,4.28,5.57,13.37,5.68,16.1,5.57-3.94.09-7.85-1.92-10.74-3.92,6.5,3.12,15.37,1.42,15.37,1.42-7.22-.31-18.22-17.92-18.22-17.92,6.45,5.43,14.54,2,14.54,2-8.09-.1-15.26-11.16-15.26-11.16,5.43,7.16,15.26,5,15.26,5-10.86.21-21-17.2-21-17.2,4.19,7.07,10.54,4.2,10.54,4.2-7.37-.1-10.85-8.19-10.85-8.19,5.53,7.17,16.18,3.17,16.18,3.17-16.8-3.37-20.58-15.87-20.58-15.87,5.73,8.09,15.35,4.71,15.35,4.71-10,1.34-15.35-6.75-15.35-6.75,6.65,9.21,21,3.89,21,3.89-13.62.82-21.61-13.82-21.61-13.82,2.46,3.37,7.07,2,7.07,2-3.79.72-9.93-8.29-9.93-8.29,5.52,6.76,15.76,2,15.76,2-9.21,3.07-27-24.11-27-24.11s-17.82,27.18-27,24.11c0,0,10.24,4.71,15.77-2,0,0-6.14,9-9.93,8.29,0,0,4.61,1.33,7.06-2,0,0-8,14.64-21.6,13.82,0,0,14.33,5.32,21-3.89,0,0-5.32,8.09-15.36,6.75,0,0,9.63,3.38,15.36-4.71,0,0-3.79,12.5-20.58,15.87,0,0,10.65,4,16.18-3.17,0,0-3.48,8.09-10.86,8.19,0,0,6.35,2.87,10.55-4.2,0,0-10.14,17.41-21,17.2,0,0,9.83,2.15,15.26-5,0,0-7.17,11.06-15.26,11.16,0,0,8.09,3.48,14.54-2,0,0-11,17.61-18.23,17.92,0,0,8.88,1.7,15.37-1.42-2.88,2-6.79,4-10.73,3.92,2.73.11,11.82,0,16.1-5.57,0,0-8.76,22-22.73,22.88,0,0,12.44,4.46,19.5-5.37,0,0-11.06,16.74-22.42,17.66,0,0,13.51,1.07,22.58-14,0,0-4.3,12.14-8.45,12.9,0,0,4.51.1,9.19-6.55-5.24,9.13-15.09,23.73-25,24.78a24.52,24.52,0,0,0,22.17-8.25c-5,6.34-14.38,16.6-23.6,18.38,0,0,9.82-.29,17.75-2.85-6.13,3.11-14.47,7-19,7.72,2.87-.42,21.61-3.31,27.25-9.12,0,0-11.62,16.51-43.34,22.12,0,0,18.52,1.23,31-2.08-10.1,5.53-25.29,13.28-33.79,14.83,0,0,14.28.92,23-6.3,0,0-9.06,12.9-19.51,13.36,0,0,11.4,3.28,20.67-3-3.67,3-9.21,6.91-13.3,7,0,0,9.42,3.58,18.28-8.3,0,0-18.33,26.06-29.28,25.14,0,0,15.18,1.57,26.87-5.4a110,110,0,0,1-10.11,9.61H930.6a110.06,110.06,0,0,1-10.12-9.61C932.17,1318.09,947.36,1316.52,947.36,1316.52Z" transform="translate(-654.42 -236.13)"/><path class="cls-12" d="M1012.66,1360.41c-6.74,4.16-20,11.76-27.33,11.62,0,0,2.14.32,5.37.63h115.84c3.23-.31,5.38-.63,5.38-.63-7.28.14-20.6-7.46-27.33-11.62,9.44,3.42,28.35.67,28.35.67-4.74-1.07-10.09-3.74-15.35-7.06a12,12,0,0,0,3.61-.64,32.86,32.86,0,0,1-9.44-3.3c-3.44-2.47-6.72-5.06-9.63-7.49a28.75,28.75,0,0,0,10.67.81,13.69,13.69,0,0,1-6.88-3.31,25.9,25.9,0,0,0,9.59-2.28,38,38,0,0,1-12.23-8.87c5.61,4.8,20.85-.92,20.85-.92-14.42-1.3-29.64-14.85-35.58-20.7,5.44,4.21,11.93,2,11.93,2-9.82.56-15.23-13.11-15.23-13.11,8.41,12.37,31.46,6.09,31.46,6.09-18.64.74-32.27-27.15-32.27-27.15,9.22,10.9,25.46,4.8,25.46,4.8-15.64-.37-19.24-13.67-19.24-13.67,5.21,2.41,7,.74,7,.74-6,.19-10.42-6.65-10.42-6.65,9.42,7.95,21.44.56,21.44.56-9.42,2-20.37-16.63-20.37-16.63,4.48,3.33,12.76,0,12.76,0-3.79.93-11.07-3-15.94-6.11,10,4.64,23.55,1.31,23.55,1.31a41,41,0,0,1-25.25-14c5.81,2.4,9.82,1.11,9.82,1.11-11.82-.18-16-10.53-16-10.53,1.6,2.22,9.62,2.4,9.62,2.4-2.41,0-7-4-7-4,6.31,2.91,16.68.41,16.68.41-20.74,0-24.35-19.53-21.5-16.2s7.07.83,7.07.83c-7.67-3.3-11.19-13.7-12.8-22.08v-11.58s-.08,3.12-.68,7.49a73.09,73.09,0,0,1-.67-7.49v11.58c-1.61,8.38-5.13,18.78-12.81,22.08,0,0,4.24,2.49,7.08-.83s-.77,16.2-21.51,16.2c0,0,10.37,2.5,16.69-.41,0,0-4.6,4-7,4,0,0,8-.18,9.62-2.4,0,0-4.21,10.35-16,10.53,0,0,4,1.29,9.82-1.11a41,41,0,0,1-25.25,14s13.57,3.33,23.56-1.31c-4.88,3.07-12.16,7-15.94,6.11,0,0,8.27,3.33,12.75,0,0,0-11,18.66-20.37,16.63,0,0,12,7.39,21.45-.56,0,0-4.41,6.84-10.43,6.65,0,0,1.81,1.67,7-.74,0,0-3.61,13.3-19.24,13.67,0,0,16.23,6.1,25.45-4.8,0,0-13.63,27.89-32.27,27.15,0,0,23.05,6.28,31.47-6.09,0,0-5.41,13.67-15.23,13.11,0,0,6.48,2.17,11.93-2-6,5.85-21.16,19.4-35.58,20.7,0,0,15.23,5.72,20.84.92a38,38,0,0,1-12.22,8.87,25.9,25.9,0,0,0,9.59,2.28,13.74,13.74,0,0,1-6.88,3.31,28.69,28.69,0,0,0,10.66-.81c-2.91,2.43-6.19,5-9.62,7.49a33,33,0,0,1-9.45,3.3,12.06,12.06,0,0,0,3.62.64c-5.27,3.32-10.62,6-15.36,7.06C984.3,1361.08,1003.21,1363.83,1012.66,1360.41Zm65.23,8.21h0c-.12-.22-.19-.33-.19-.33S1077.81,1368.51,1077.89,1368.62Zm-58.32-.33-.19.33h0C1019.43,1368.51,1019.51,1368.4,1019.57,1368.29Z" transform="translate(-654.42 -236.13)"/><path class="cls-13" d="M1493.64,1238.09a167.1,167.1,0,0,0-23.23-.5l-1.39-.38a18.43,18.43,0,0,0-13,1.63c-35.94,4.51-70.73,19-102.69,35.49-21,10.81-41.47,22.68-62.46,33.53-21.67,11.21-40.48,19.77-64,26.3a278.71,278.71,0,0,1-35.26,7.36,341.87,341.87,0,0,1-34.13,2.56c-12.06.29-24.13,0-36.17-.83q-8.58-.57-17.14-1.47c-6.46-.67-11.48-1.29-16.53-2-49.28-7.12-97.23-20.6-145.14-33.83-50-13.81-100.35-26.87-152.05-32.65a392.81,392.81,0,0,0-75.81-1.6c-20,1.64-41.07,4-59.71,12v409.9a33.64,33.64,0,0,0,33.64,33.64H1460a33.64,33.64,0,0,0,33.64-33.64Z" transform="translate(-654.42 -236.13)"/><path class="cls-14" d="M1342.38,1366.22c-11,.92-29.29-25.14-29.29-25.14,8.86,11.88,18.28,8.3,18.28,8.3-4.09-.13-9.63-4-13.29-7,9.26,6.32,20.66,3,20.66,3-10.44-.46-19.5-13.36-19.5-13.36,8.75,7.22,23,6.3,23,6.3-8.5-1.55-23.69-9.29-33.79-14.83,12.52,3.32,31,2.08,31,2.08-31.72-5.6-43.34-22.11-43.34-22.11,5.64,5.81,24.39,8.7,27.25,9.11-4.55-.71-12.89-4.61-19-7.71,7.93,2.55,17.75,2.85,17.75,2.85-9.22-1.79-18.58-12-23.6-18.39a24.52,24.52,0,0,0,22.17,8.25c-9.87-1-19.72-15.65-25-24.77,4.69,6.64,9.19,6.54,9.19,6.54-4.14-.76-8.44-12.9-8.44-12.9,9.06,15,22.57,14,22.57,14-11.36-.92-22.42-17.66-22.42-17.66,7.06,9.83,19.5,5.37,19.5,5.37-14-.92-22.73-22.88-22.73-22.88,4.28,5.57,13.37,5.68,16.11,5.57-4,.09-7.86-1.92-10.74-3.91,6.5,3.11,15.37,1.41,15.37,1.41-7.22-.31-18.23-17.92-18.23-17.92,6.45,5.43,14.54,1.95,14.54,1.95-8.09-.1-15.25-11.16-15.25-11.16,5.42,7.17,15.25,5,15.25,5-10.85.2-21-17.2-21-17.2,4.2,7.06,10.55,4.19,10.55,4.19-7.37-.1-10.85-8.19-10.85-8.19,5.52,7.17,16.17,3.18,16.17,3.18-16.79-3.38-20.58-15.87-20.58-15.87,5.74,8.09,15.36,4.71,15.36,4.71-10,1.33-15.36-6.76-15.36-6.76,6.66,9.21,21,3.89,21,3.89-13.62.82-21.6-13.82-21.6-13.82,2.46,3.38,7.06,2.05,7.06,2.05-3.79.71-9.93-8.3-9.93-8.3,5.53,6.76,15.77,2.05,15.77,2.05-9.22,3.07-27-24.11-27-24.11s-17.83,27.18-27,24.11c0,0,10.24,4.71,15.77-2.05,0,0-6.15,9-9.93,8.3,0,0,4.6,1.33,7.06-2.05,0,0-8,14.64-21.6,13.82,0,0,14.33,5.32,21-3.89,0,0-5.33,8.09-15.36,6.76,0,0,9.62,3.38,15.36-4.71,0,0-3.79,12.49-20.58,15.87,0,0,10.64,4,16.17-3.18,0,0-3.48,8.09-10.85,8.19,0,0,6.35,2.87,10.55-4.19,0,0-10.14,17.4-21,17.2,0,0,9.83,2.15,15.25-5,0,0-7.16,11.06-15.25,11.16,0,0,8.09,3.48,14.54-1.95,0,0-11,17.61-18.23,17.92,0,0,8.87,1.7,15.37-1.41-2.88,2-6.8,4-10.74,3.91,2.73.11,11.83,0,16.1-5.57,0,0-8.75,22-22.73,22.88,0,0,12.44,4.46,19.51-5.37,0,0-11.06,16.74-22.42,17.66,0,0,13.51,1.07,22.57-14,0,0-4.3,12.14-8.44,12.9,0,0,4.5.1,9.19-6.54-5.24,9.12-15.09,23.72-25,24.77a24.52,24.52,0,0,0,22.17-8.25c-5,6.34-14.39,16.6-23.6,18.39,0,0,9.82-.3,17.75-2.85-6.13,3.1-14.47,7-19,7.71,2.86-.41,21.61-3.3,27.25-9.11,0,0-11.63,16.51-43.34,22.11,0,0,18.51,1.24,31-2.08-10.1,5.54-25.29,13.28-33.79,14.83,0,0,14.28.92,23-6.3,0,0-9.06,12.9-19.5,13.36,0,0,11.4,3.28,20.66-3-3.66,3-9.2,6.91-13.29,7,0,0,9.42,3.58,18.28-8.3,0,0-18.33,26.06-29.29,25.14,0,0,15.19,1.57,26.88-5.4a112.82,112.82,0,0,1-10.11,9.62h111.16a112.82,112.82,0,0,1-10.11-9.62C1327.19,1367.79,1342.38,1366.22,1342.38,1366.22Z" transform="translate(-654.42 -236.13)"/><path class="cls-15" d="M1313.54,1366.78c-8.84,5.47-26.32,15.44-35.87,15.27,0,0,2.81.42,7,.82H1436.8c4.24-.4,7.06-.82,7.06-.82-9.56.17-27-9.8-35.88-15.27,12.4,4.49,37.22.89,37.22.89-6.22-1.4-13.24-4.92-20.15-9.27a15.43,15.43,0,0,0,4.74-.85c-3.83-.47-8.56-2.43-12.4-4.33-4.51-3.24-8.82-6.64-12.64-9.83,6.28,2,14,1.07,14,1.07a18,18,0,0,1-9-4.35,34,34,0,0,0,12.58-3,50,50,0,0,1-16-11.64c7.37,6.31,27.37-1.21,27.37-1.21-18.93-1.7-38.9-19.5-46.71-27.18,7.15,5.53,15.66,2.69,15.66,2.69-12.89.73-20-17.22-20-17.22,11.05,16.25,41.31,8,41.31,8-24.47,1-42.36-35.64-42.36-35.64,12.1,14.3,33.42,6.3,33.42,6.3-20.53-.48-25.26-17.94-25.26-17.94,6.84,3.15,9.21,1,9.21,1-7.9.24-13.68-8.73-13.68-8.73,12.36,10.42,28.15.72,28.15.72-12.37,2.67-26.75-21.82-26.75-21.82,5.88,4.36,16.75,0,16.75,0-5,1.22-14.53-4-20.93-8,13.11,6.09,30.93,1.72,30.93,1.72a53.74,53.74,0,0,1-33.15-18.43c7.63,3.16,12.89,1.46,12.89,1.46-15.52-.24-21-13.82-21-13.82,2.1,2.91,12.63,3.15,12.63,3.15-3.16,0-9.19-5.32-9.19-5.32,8.29,3.82,21.9.54,21.9.54-27.23,0-32-25.64-28.23-21.28s9.29,1.1,9.29,1.1c-10.08-4.34-14.7-18-16.82-29V1111.3a95.34,95.34,0,0,1-.88,9.84,95.34,95.34,0,0,1-.88-9.84v15.21c-2.12,11-6.74,24.65-16.82,29,0,0,5.56,3.27,9.29-1.1s-1,21.28-28.23,21.28c0,0,13.61,3.28,21.9-.54,0,0-6,5.32-9.19,5.32,0,0,10.53-.24,12.63-3.15,0,0-5.52,13.58-21,13.82,0,0,5.27,1.7,12.9-1.46a53.75,53.75,0,0,1-33.16,18.43s17.82,4.37,30.93-1.72c-6.4,4-16,9.25-20.93,8,0,0,10.87,4.36,16.75,0,0,0-14.38,24.49-26.75,21.82,0,0,15.79,9.7,28.16-.72,0,0-5.79,9-13.69,8.73,0,0,2.37,2.18,9.21-1,0,0-4.73,17.46-25.26,17.94,0,0,21.32,8,33.42-6.3,0,0-17.89,36.61-42.36,35.64,0,0,30.26,8.25,41.31-8,0,0-7.11,18-20,17.22,0,0,8.51,2.84,15.67-2.69-7.82,7.68-27.79,25.48-46.72,27.18,0,0,20,7.52,27.37,1.21a50,50,0,0,1-16,11.64,34,34,0,0,0,12.59,3,18.06,18.06,0,0,1-9,4.35s7.73,1,14-1.07c-3.82,3.19-8.13,6.59-12.64,9.83-3.84,1.9-8.56,3.86-12.4,4.33a15.46,15.46,0,0,0,4.75.85c-6.91,4.35-13.94,7.87-20.16,9.27C1276.32,1367.67,1301.15,1371.27,1313.54,1366.78Zm85.64,10.78h0c-.17-.28-.25-.43-.25-.43S1399.08,1377.42,1399.18,1377.56Zm-76.56-.43s-.08.15-.25.43h0C1322.44,1377.42,1322.54,1377.27,1322.62,1377.13Z" transform="translate(-654.42 -236.13)"/><path class="cls-16" d="M1493.64,1300.29c-29.29-9.3-40.49-25.17-40.49-25.17,7.48,7.7,32.32,11.53,36.12,12.07-6-.94-17.08-6.1-25.21-10.22,10.51,3.38,23.53,3.78,23.53,3.78-12.22-2.36-24.62-16-31.28-24.37,13.07,14.48,29.38,10.93,29.38,10.93-13.08-1.39-26.13-20.73-33.08-32.83,6.21,8.8,12.18,8.68,12.18,8.68-5.49-1-11.19-17.1-11.19-17.1,12,20,29.92,18.52,29.92,18.52-15.06-1.22-29.72-23.4-29.72-23.4,9.37,13,25.85,7.12,25.85,7.12-18.52-1.22-30.12-30.33-30.12-30.33,5.67,7.39,17.72,7.53,21.34,7.39-5.23.12-10.41-2.55-14.23-5.19,8.61,4.12,20.37,1.87,20.37,1.87-9.57-.4-24.16-23.74-24.16-23.74,8.55,7.19,19.27,2.57,19.27,2.57-10.72-.13-20.22-14.79-20.22-14.79,7.2,9.5,20.22,6.65,20.22,6.65-14.38.27-27.82-22.8-27.82-22.8,5.57,9.37,14,5.57,14,5.57-9.77-.14-14.38-10.86-14.38-10.86,7.32,9.5,21.44,4.21,21.44,4.21-22.26-4.48-27.28-21-27.28-21,7.6,10.72,20.36,6.24,20.36,6.24-13.3,1.76-20.36-9-20.36-9,8.82,12.21,27.82,5.16,27.82,5.16-18.05,1.08-28.63-18.32-28.63-18.32,3.25,4.48,9.36,2.71,9.36,2.71-5,.95-13.16-11-13.16-11,7.33,9,20.9,2.72,20.9,2.72-12.22,4.07-35.84-32-35.84-32s-23.63,36-35.84,32c0,0,13.57,6.24,20.9-2.72,0,0-8.14,11.94-13.16,11,0,0,6.1,1.77,9.36-2.71,0,0-10.59,19.4-28.63,18.32,0,0,19,7,27.81-5.16,0,0-7,10.72-20.35,9,0,0,12.76,4.48,20.35-6.24,0,0-5,16.55-27.27,21,0,0,14.11,5.29,21.44-4.21,0,0-4.61,10.72-14.38,10.86,0,0,8.41,3.8,14-5.57,0,0-13.43,23.07-27.82,22.8,0,0,13,2.85,20.22-6.65,0,0-9.5,14.66-20.22,14.79,0,0,10.72,4.62,19.27-2.57,0,0-14.58,23.34-24.15,23.74,0,0,11.76,2.25,20.37-1.87-3.82,2.64-9,5.31-14.23,5.19,3.62.14,15.67,0,21.34-7.39,0,0-11.6,29.11-30.13,30.33,0,0,16.49,5.9,25.85-7.12,0,0-14.65,22.18-29.71,23.4,0,0,17.91,1.43,29.92-18.52,0,0-5.7,16.08-11.2,17.1,0,0,6,.12,12.18-8.68-6.94,12.1-20,31.44-33.08,32.83,0,0,16.32,3.55,29.38-10.93-6.65,8.41-19.06,22-31.28,24.37,0,0,13-.4,23.54-3.78-8.13,4.12-19.19,9.28-25.22,10.22,3.8-.54,28.65-4.37,36.12-12.07,0,0-15.4,21.88-57.44,29.31,0,0,24.54,1.63,41.13-2.76-13.39,7.33-33.52,17.6-44.79,19.65,0,0,18.93,1.22,30.53-8.34,0,0-12,17.09-25.85,17.7,0,0,15.11,4.35,27.39-4-4.86,4-12.2,9.16-17.62,9.33,0,0,12.49,4.75,24.22-11,0,0-24.29,34.53-38.81,33.31,0,0,20.13,2.08,35.62-7.15a148.12,148.12,0,0,1-13.4,12.74h147.34a148.2,148.2,0,0,1-13.41-12.74,50.52,50.52,0,0,0,14.87,5.69V1346.3a175.48,175.48,0,0,1-18.06-21.31c6.56,8.79,13.34,11.18,18.06,11.59v-2.34a59.14,59.14,0,0,1-11.45-7.59,29.29,29.29,0,0,0,11.45,4.58v-7.74a60.18,60.18,0,0,1-9.92-10.51,32.85,32.85,0,0,0,9.92,5.42v-4.48c-8.42-3.83-17.21-8.43-24.17-12.25,7.44,2,16.47,2.72,24.17,3Z" transform="translate(-654.42 -236.13)"/><path class="cls-17" d="M942.68,1408.49c-18.28,1.54-48.86-41.94-48.86-41.94,14.78,19.82,30.5,13.84,30.5,13.84-6.83-.21-16.07-6.74-22.18-11.75,15.45,10.55,34.48,5.08,34.48,5.08-17.43-.76-32.55-22.29-32.55-22.29,14.61,12,38.44,10.51,38.44,10.51-14.19-2.58-39.54-15.51-56.38-24.74,20.88,5.52,51.77,3.47,51.77,3.47-52.92-9.36-72.32-36.91-72.32-36.91,9.41,9.7,40.69,14.52,45.48,15.21-7.59-1.19-21.51-7.69-31.75-12.87,13.23,4.26,29.63,4.75,29.63,4.75-15.38-3-31-20.09-39.38-30.67,16.45,18.22,37,13.76,37,13.76-16.47-1.75-32.9-26.11-41.65-41.34,7.82,11.09,15.34,10.93,15.34,10.93-6.92-1.28-14.1-21.53-14.1-21.53,15.12,25.12,37.68,23.32,37.68,23.32-19-1.53-37.42-29.47-37.42-29.47,11.79,16.4,32.55,9,32.55,9-23.32-1.53-37.93-38.18-37.93-38.18,7.14,9.3,22.31,9.47,26.87,9.3-6.58.15-13.11-3.21-17.92-6.54,10.84,5.2,25.64,2.36,25.64,2.36-12-.51-30.41-29.89-30.41-29.89,10.77,9.05,24.26,3.24,24.26,3.24-13.49-.17-25.45-18.62-25.45-18.62,9,12,25.45,8.37,25.45,8.37-18.11.34-35-28.7-35-28.7,7,11.79,17.6,7,17.6,7-12.3-.18-18.11-13.67-18.11-13.67,9.22,12,27,5.29,27,5.29-28-5.63-34.34-26.48-34.34-26.48,9.57,13.5,25.63,7.86,25.63,7.86-16.74,2.22-25.63-11.27-25.63-11.27,11.11,15.37,35,6.49,35,6.49-22.73,1.37-36.05-23.07-36.05-23.07,4.1,5.64,11.79,3.42,11.79,3.42-6.33,1.2-16.58-13.84-16.58-13.84,9.23,11.28,26.31,3.42,26.31,3.42-15.37,5.13-45.12-40.22-45.12-40.22s-29.74,45.35-45.11,40.22c0,0,17.08,7.86,26.31-3.42,0,0-10.26,15-16.58,13.84,0,0,7.69,2.22,11.79-3.42,0,0-13.32,24.44-36,23.07,0,0,23.92,8.88,35-6.49,0,0-8.89,13.49-25.63,11.27,0,0,16.06,5.64,25.63-7.86,0,0-6.32,20.85-34.34,26.48,0,0,17.76,6.67,27-5.29,0,0-5.81,13.49-18.11,13.67,0,0,10.59,4.78,17.6-7,0,0-16.92,29-35,28.7,0,0,16.41,3.59,25.46-8.37,0,0-12,18.45-25.46,18.62,0,0,13.5,5.81,24.26-3.24,0,0-18.36,29.38-30.41,29.89,0,0,14.81,2.84,25.65-2.36-4.81,3.33-11.34,6.69-17.92,6.54,4.56.17,19.73,0,26.87-9.3,0,0-14.61,36.65-37.93,38.18,0,0,20.76,7.43,32.55-9,0,0-18.45,27.94-37.42,29.47,0,0,22.56,1.8,37.67-23.32,0,0-7.17,20.25-14.09,21.53,0,0,7.52.16,15.34-10.93-8.75,15.23-25.18,39.59-41.65,41.34,0,0,20.54,4.46,37-13.76-8.38,10.58-24,27.7-39.38,30.67,0,0,16.39-.49,29.62-4.75-10.23,5.18-24.15,11.68-31.74,12.87,4.79-.69,36.07-5.51,45.48-15.21,0,0-19.4,27.55-72.32,36.91,0,0,30.89,2,51.77-3.47-16.84,9.23-42.19,22.16-56.38,24.74,0,0,23.83,1.53,38.44-10.51,0,0-15.12,21.53-32.55,22.29,0,0,19,5.47,34.48-5.08-6.11,5-15.35,11.54-22.18,11.75,0,0,15.72,6,30.5-13.84,0,0-30.58,43.48-48.86,41.94,0,0,25.34,2.62,44.84-9a187.4,187.4,0,0,1-16.87,16H914.71a186.08,186.08,0,0,1-16.87-16C917.34,1411.11,942.68,1408.49,942.68,1408.49Z" transform="translate(-654.42 -236.13)"/><path class="cls-18" d="M951.53,1405c-10,6.2-29.84,17.5-40.68,17.3,0,0,3.19.48,8,.93h172.43c4.8-.45,8-.93,8-.93-10.83.2-30.65-11.1-40.67-17.3,14.05,5.09,42.2,1,42.2,1-7.06-1.59-15-5.57-22.85-10.51a17.82,17.82,0,0,0,5.38-1c-4.35-.53-9.71-2.76-14.06-4.91-5.12-3.67-10-7.53-14.33-11.15,7.12,2.32,15.88,1.22,15.88,1.22a20.44,20.44,0,0,1-10.24-4.94,38.63,38.63,0,0,0,14.27-3.39,56.74,56.74,0,0,1-18.2-13.2c8.36,7.15,31-1.37,31-1.37-21.46-1.94-44.11-22.11-53-30.82,8.11,6.27,17.76,3,17.76,3-14.62.82-22.68-19.52-22.68-19.52,12.53,18.42,46.84,9.07,46.84,9.07-27.74,1.1-48-40.42-48-40.42,13.72,16.22,37.89,7.15,37.89,7.15-23.27-.55-28.64-20.35-28.64-20.35,7.76,3.58,10.44,1.1,10.44,1.1-9,.28-15.51-9.89-15.51-9.89,14,11.82,31.92.82,31.92.82-14,3-30.33-24.74-30.33-24.74,6.67,4.94,19,0,19,0-5.63,1.38-16.47-4.54-23.73-9.11,14.87,6.91,35.07,2,35.07,2a60.92,60.92,0,0,1-37.59-20.9c8.65,3.57,14.62,1.65,14.62,1.65-17.6-.27-23.87-15.67-23.87-15.67,2.39,3.3,14.32,3.57,14.32,3.57-3.58,0-10.42-6-10.42-6,9.4,4.33,24.84.62,24.84.62-30.88,0-36.25-29.08-32-24.13s10.54,1.24,10.54,1.24c-11.43-4.92-16.67-20.39-19.07-32.86v-17.25a107.15,107.15,0,0,1-1,11.16,110.65,110.65,0,0,1-1-11.16v17.25c-2.4,12.47-7.64,27.94-19.07,32.86,0,0,6.31,3.71,10.54-1.24s-1.14,24.13-32,24.13c0,0,15.43,3.71,24.83-.62,0,0-6.84,6-10.42,6,0,0,11.93-.27,14.32-3.57,0,0-6.26,15.4-23.87,15.67,0,0,6,1.92,14.62-1.65a60.92,60.92,0,0,1-37.59,20.9s20.2,5,35.07-2c-7.26,4.57-18.09,10.49-23.73,9.11,0,0,12.32,4.94,19,0,0,0-16.3,27.76-30.33,24.74,0,0,17.9,11,31.92-.82,0,0-6.56,10.17-15.51,9.89,0,0,2.69,2.48,10.44-1.1,0,0-5.37,19.8-28.64,20.35,0,0,24.17,9.07,37.89-7.15,0,0-20.28,41.52-48,40.42,0,0,34.31,9.35,46.84-9.07,0,0-8.06,20.34-22.67,19.52,0,0,9.64,3.22,17.76-3-8.86,8.71-31.51,28.88-53,30.82,0,0,22.68,8.52,31,1.37a56.74,56.74,0,0,1-18.2,13.2,38.7,38.7,0,0,0,14.27,3.39,20.44,20.44,0,0,1-10.24,4.94s8.76,1.1,15.88-1.22c-4.33,3.62-9.21,7.48-14.33,11.15-4.35,2.15-9.71,4.38-14.06,4.91a17.82,17.82,0,0,0,5.38,1c-7.83,4.94-15.79,8.92-22.85,10.51C909.32,1406,937.47,1410,951.53,1405Zm97.09,12.22h0l-.29-.5C1048.4,1416.84,1048.51,1417,1048.62,1417.17Zm-86.8-.5s-.09.18-.29.5h0C961.61,1417,961.72,1416.84,961.82,1416.67Z" transform="translate(-654.42 -236.13)"/><path class="cls-19" d="M1493.64,1693.6V1490.85c-18.54-.18-37.07-1.16-55.53-2.81-11.39-1-22.74-2.34-34.09-3.76l-.25,0-.29,0-3.41-.48c-3-.43-6-.87-9.07-1.33q-8.51-1.29-17-2.73c-45.39-7.66-90.23-18.22-134.78-29.7-87.92-22.65-175.18-48.89-265-63-82.63-13-166.43-15.82-248.49,2.62a468.25,468.25,0,0,0-70.81,21.86V1693.6a33.64,33.64,0,0,0,33.64,33.64H1460A33.64,33.64,0,0,0,1493.64,1693.6Z" transform="translate(-654.42 -236.13)"/><g class="cls-20"><path class="cls-21" d="M1445.2,325.2c-13.19-9.5-22.58-17.38-39.46-12.63-2.11-19.53-21.64-19-34.83-6.86,6.86-29-33.76-44.32-54.34-28.49-25.32,19-9.36,39.4,3.17,42.21-6.31,0-11.48,3-11.36,5.77Z" transform="translate(-654.42 -236.13)"/></g><path class="cls-22" d="M1264.25,952.85l-21.55,0-.66,0h-10.66a11.92,11.92,0,0,1-11.9-11.92v-.08a11.92,11.92,0,0,1,11.93-11.9H1242l.7,0h48.67A11.91,11.91,0,0,0,1303.29,917v-.08A11.92,11.92,0,0,0,1291.38,905H1012.52a11.91,11.91,0,0,0-11.91,11.91V917a11.91,11.91,0,0,0,11.91,11.91h112.57a12.13,12.13,0,0,1,2.27.22h7.1a11.92,11.92,0,0,1,11.9,11.93v.07a11.91,11.91,0,0,1-11.92,11.9l-61.83-.06a11.89,11.89,0,0,0-9.3,11.61v.07a11.9,11.9,0,0,0,11.89,11.92l189,.2a11.92,11.92,0,0,0,11.92-11.9v-.08A11.91,11.91,0,0,0,1264.25,952.85Z" transform="translate(-654.42 -236.13)"/><path class="cls-23" d="M698.66,633.35h17.11a6.21,6.21,0,0,1,6.19,6.21v0a6.19,6.19,0,0,1-6.2,6.19H684.54a6.19,6.19,0,0,0-6.2,6.2v0a6.2,6.2,0,0,0,6.2,6.2H829.7a6.21,6.21,0,0,0,6.2-6.2v0a6.2,6.2,0,0,0-6.2-6.2H771.1a6.56,6.56,0,0,1-1.18-.11h-3.7a6.19,6.19,0,0,1-6.19-6.2v0a6.2,6.2,0,0,1,6.2-6.2l32.19,0a6.18,6.18,0,0,0,4.84-6v0a6.2,6.2,0,0,0-6.19-6.2l-98.4-.1a6.21,6.21,0,0,0-6.21,6.19v0A6.21,6.21,0,0,0,698.66,633.35Z" transform="translate(-654.42 -236.13)"/><path class="cls-23" d="M1264.29,442.64c0-.63.08-1.26.08-1.9A23.79,23.79,0,0,0,1240.58,417l-1.29,0a34.93,34.93,0,0,0-32.13-21.24c-.7,0-1.39,0-2.09.07a53.85,53.85,0,0,0-104.17,2.5,33.9,33.9,0,0,0-23.62,29.52,30.85,30.85,0,0,0-35.72,14.8Z" transform="translate(-654.42 -236.13)"/><g class="cls-24"><path class="cls-21" d="M671.58,342.28c14.29-15,41.35-12,60.15-12.78h0c5.27-15,16.55-29.33,32.34-33.09,12-3,30.83-2.25,33.83,12.79,0,0-1.21-38.34,37.34-38.34S865.58,313,865.58,313c18.8-14.29,40.6-15.79,54.89,5.26,3.76,5.26,1.5,7.52,7.52,9,3,1.51,11.28-.75,15.79,0,9.77,1.51,28.57,15,28.57,15Z" transform="translate(-654.42 -236.13)"/></g><path class="cls-25" d="M1232.44,668.74l24.78.09v.27h.36a9.76,9.76,0,0,1,9.76,9.78v.06a9.77,9.77,0,0,1-9.78,9.76h-.34v0l-137.21,0a9.76,9.76,0,0,0-9.78,9.75v.07a9.77,9.77,0,0,0,9.76,9.78h114.89l.54,0h8.74a9.76,9.76,0,0,1,9.76,9.78v.06a9.78,9.78,0,0,1-9.78,9.76h-8.69l-.58,0h-16.21a9.77,9.77,0,0,0-9.77,9.77v.06a9.78,9.78,0,0,0,9.77,9.77h124.79a9.77,9.77,0,0,0,9.77-9.77v-.06a9.76,9.76,0,0,0-9.77-9.77h-12.11a10.47,10.47,0,0,1-1.86-.18h-5.83a9.76,9.76,0,0,1-9.75-9.78v-.06a9.77,9.77,0,0,1,9.78-9.76l47.36.05a9.77,9.77,0,0,0,7.64-9.52v-.06a9.78,9.78,0,0,0-9.76-9.78l-59.6-.06v-.28h-5.78a9.76,9.76,0,0,1-9.76-9.78v-.06a9.77,9.77,0,0,1,9.78-9.76h0c.73,0,110.47-.13,111.11-.38,2.15-.84,5.58-4.82,5.58-7.26v-5c0-3.18-4.48-7-7.65-7H1294.89l-62.43-.13a8.09,8.09,0,0,0-8.09,8.08v3.43A8.07,8.07,0,0,0,1232.44,668.74Z" transform="translate(-654.42 -236.13)"/></svg>